<?xml version="1.0" encoding="utf-8"?>
<!-- Generator: Adobe Illustrator 22.0.1, SVG Export Plug-In . SVG Version: 6.00 Build 0)  -->
<svg version="1.1" id="Layer_1" xmlns="http://www.w3.org/2000/svg" xmlns:xlink="http://www.w3.org/1999/xlink" x="0px" y="0px"
	 viewBox="0 0 550 374" style="enable-background:new 0 0 550 374;" xml:space="preserve">
<style type="text/css">
	.st0{fill:url(#SVGID_1_);}
	.st1{fill:url(#SVGID_2_);}
	.st2{fill:url(#SVGID_3_);}
	.st3{fill:url(#SVGID_4_);}
	.st4{fill:url(#SVGID_5_);}
	.st5{fill:url(#SVGID_6_);}
	.st6{fill:url(#SVGID_7_);}
	.st7{fill:url(#SVGID_8_);}
	.st8{fill:url(#SVGID_9_);}
	.st9{fill:url(#SVGID_10_);}
	.st10{fill:url(#SVGID_11_);}
	.st11{fill:url(#SVGID_12_);}
	.st12{fill:url(#SVGID_13_);}
	.st13{fill:url(#SVGID_14_);}
	.st14{fill:url(#SVGID_15_);}
	.st15{fill:url(#SVGID_16_);}
	.st16{fill:url(#SVGID_17_);}
	.st17{fill:url(#SVGID_18_);}
	.st18{fill:url(#SVGID_19_);}
	.st19{fill:url(#SVGID_20_);}
	.st20{fill:url(#SVGID_21_);}
	.st21{fill:url(#SVGID_22_);}
	.st22{fill:url(#SVGID_23_);}
	.st23{fill:url(#SVGID_24_);}
	.st24{fill:url(#SVGID_25_);}
	.st25{fill:url(#SVGID_26_);}
	.st26{fill:url(#SVGID_27_);}
	.st27{fill:url(#SVGID_28_);}
	.st28{fill:url(#SVGID_29_);}
	.st29{fill:url(#SVGID_30_);}
	.st30{fill:url(#SVGID_31_);}
	.st31{fill:url(#SVGID_32_);}
	.st32{fill:url(#SVGID_33_);}
	.st33{fill:url(#SVGID_34_);}
	.st34{fill:url(#SVGID_35_);}
	.st35{fill:url(#SVGID_36_);}
	.st36{fill:url(#SVGID_37_);}
	.st37{fill:url(#SVGID_38_);}
</style>
<g id="Layer_2_1_">
	<g id="Layer_1_1_">
		<g>
			
				<linearGradient id="SVGID_1_" gradientUnits="userSpaceOnUse" x1="-8.2673" y1="1488.0741" x2="561.015" y2="1128.189" gradientTransform="matrix(1 0 0 1 0 -1122)">
				<stop  offset="0" style="stop-color:#62BCFA"/>
				<stop  offset="1" style="stop-color:#6534FF"/>
			</linearGradient>
			<path class="st0" d="M43.5,374h463c24,0,43.5-19.5,43.5-43.5v-287c0-24-19.5-43.5-43.5-43.5h-463C19.5,0,0,19.5,0,43.5v287
				C0,354.5,19.5,374,43.5,374z"/>
		</g>
	</g>
</g>
<g id="Layer_2_2_">
	
		<linearGradient id="SVGID_2_" gradientUnits="userSpaceOnUse" x1="133.6683" y1="-601.045" x2="407.7787" y2="-442.7874" gradientTransform="matrix(1 0 0 -1 0 -328)">
		<stop  offset="0" style="stop-color:#6534FF"/>
		<stop  offset="1" style="stop-color:#62BCFA"/>
	</linearGradient>
	<path class="st1" d="M330.8,344.9H219.2l-85.5-71.8l-19.5-110L170,66.4l105-38.1l104.9,38.2l55.8,96.7l-19.5,110L330.8,344.9z
		 M226.4,324.9h97.1l74.3-62.4l16.9-95.6l-48.6-84.1L275,49.5l-91.3,33.2l-48.6,84.1l16.9,95.6L226.4,324.9z"/>
	<g>
		
			<linearGradient id="SVGID_3_" gradientUnits="userSpaceOnUse" x1="179.8313" y1="-426.3767" x2="282.8281" y2="-366.9114" gradientTransform="matrix(1 0 0 -1 0 -328)">
			<stop  offset="0" style="stop-color:#6534FF"/>
			<stop  offset="1" style="stop-color:#62BCFA"/>
		</linearGradient>
		<path class="st2" d="M218.2,96.7c-24.9,0-45.8-12.4-46.9-13.1l10.3-17.1c0.3,0.2,27.9,16.4,52.2,7.7c14.2-5.1,25-18,32.2-38.4
			l18.9,6.7c-9.4,26.4-24.3,43.4-44.5,50.6C233,95.6,225.4,96.7,218.2,96.7z"/>
		
			<linearGradient id="SVGID_4_" gradientUnits="userSpaceOnUse" x1="284.7361" y1="-411.4333" x2="355.7945" y2="-370.4078" gradientTransform="matrix(1 0 0 -1 0 -328)">
			<stop  offset="0" style="stop-color:#6534FF"/>
			<stop  offset="1" style="stop-color:#62BCFA"/>
		</linearGradient>
		<path class="st3" d="M328,96.6c-11.3,0-21.4-2.5-30.4-7.4c-27.3-15.2-31.9-47.5-32-48.9l19.8-2.7c0,0.2,3.6,24,22,34.1
			c14.7,8.1,35.5,6.1,61.9-5.9l8.3,18.2C359.2,92.5,342.6,96.6,328,96.6z"/>
		
			<linearGradient id="SVGID_5_" gradientUnits="userSpaceOnUse" x1="195.6332" y1="-454.998" x2="353.843" y2="-363.6555" gradientTransform="matrix(1 0 0 -1 0 -328)">
			<stop  offset="0" style="stop-color:#6534FF"/>
			<stop  offset="1" style="stop-color:#62BCFA"/>
		</linearGradient>
		<path class="st4" d="M275.3,125.8c-30.5,0-66.9-10.2-105.3-43.2l13-15.2c41.3,35.5,84.5,46.6,128.3,32.8
			c33.3-10.5,54.8-32,55-32.2l14.3,14c-1,1-24.7,24.9-62.5,37C306,122.9,291.5,125.8,275.3,125.8z"/>
	</g>
	<g>
		
			<linearGradient id="SVGID_6_" gradientUnits="userSpaceOnUse" x1="110.2989" y1="-476.9833" x2="200.8237" y2="-424.7188" gradientTransform="matrix(1 0 0 -1 0 -328)">
			<stop  offset="0" style="stop-color:#6534FF"/>
			<stop  offset="1" style="stop-color:#62BCFA"/>
		</linearGradient>
		<path class="st5" d="M124.8,174.1l-3.2-19.7c0.3-0.1,31.9-5.5,44.8-27.8c7.5-13,7.5-29.9-0.2-50.1l18.7-7.1
			c9.9,26.2,9.5,48.9-1.3,67.3C165.9,167.2,126.4,173.8,124.8,174.1z"/>
		
			<linearGradient id="SVGID_7_" gradientUnits="userSpaceOnUse" x1="178.683" y1="-425.3179" x2="281.0272" y2="-366.2294" gradientTransform="matrix(1 0 0 -1 0 -328)">
			<stop  offset="0" style="stop-color:#6534FF"/>
			<stop  offset="1" style="stop-color:#62BCFA"/>
		</linearGradient>
		<path class="st6" d="M214,97.9c-25.3,0-44.3-16.9-45.2-17.7l13.5-14.8l-6.7,7.4l6.7-7.4c0.2,0.2,18.2,16,38.9,11.8
			c16.4-3.3,31.1-18.3,43.5-44.5l18.1,8.6c-15.3,32.3-34.8,51-57.8,55.6C221.2,97.6,217.5,97.9,214,97.9z"/>
		
			<linearGradient id="SVGID_8_" gradientUnits="userSpaceOnUse" x1="117.3331" y1="-492.2114" x2="296.771" y2="-388.6128" gradientTransform="matrix(1 0 0 -1 0 -328)">
			<stop  offset="0" style="stop-color:#6534FF"/>
			<stop  offset="1" style="stop-color:#62BCFA"/>
		</linearGradient>
		<path class="st7" d="M125.1,174.2c-0.7,0-1.3,0-2,0l0.2-20c54.5,0.4,94.6-19,119.2-57.8c18.7-29.5,21.2-59.8,21.2-60.1l19.9,1.5
			c-0.1,1.4-2.8,35-23.8,68.6C240.4,137.4,201.3,174.2,125.1,174.2z"/>
	</g>
	<g>
		
			<linearGradient id="SVGID_9_" gradientUnits="userSpaceOnUse" x1="116.9332" y1="-555.6754" x2="170.0985" y2="-524.9804" gradientTransform="matrix(1 0 0 -1 0 -328)">
			<stop  offset="0" style="stop-color:#6534FF"/>
			<stop  offset="1" style="stop-color:#62BCFA"/>
		</linearGradient>
		<path class="st8" d="M151.2,273.7l-15.2-13l7.6,6.5l-7.6-6.5c0.2-0.2,20.7-24.9,16.1-50.3c-2.7-14.8-13.7-27.6-32.7-38l9.6-17.5
			c24.5,13.5,38.9,31,42.7,52C178.1,241.8,152.3,272.4,151.2,273.7z"/>
		
			<linearGradient id="SVGID_10_" gradientUnits="userSpaceOnUse" x1="110.3676" y1="-478.4343" x2="201.2661" y2="-425.954" gradientTransform="matrix(1 0 0 -1 0 -328)">
			<stop  offset="0" style="stop-color:#6534FF"/>
			<stop  offset="1" style="stop-color:#62BCFA"/>
		</linearGradient>
		<path class="st9" d="M124.7,173.7c-0.5,0-0.8,0-0.9,0l0.6-20c0.2,0,24.2,0.4,37.3-16.2c10.4-13.2,11.8-34,4.3-62l19.3-5.2
			c9.3,34.5,6.6,61.3-8,79.7C159.4,172.6,130.2,173.7,124.7,173.7z"/>
		
			<linearGradient id="SVGID_11_" gradientUnits="userSpaceOnUse" x1="106.1168" y1="-534.0355" x2="224.9114" y2="-465.4493" gradientTransform="matrix(1 0 0 -1 0 -328)">
			<stop  offset="0" style="stop-color:#6534FF"/>
			<stop  offset="1" style="stop-color:#62BCFA"/>
		</linearGradient>
		<path class="st10" d="M149.9,275l-12.8-15.3c41.8-35,59.7-75.8,53.3-121.3c-4.9-34.6-22.6-59.3-22.8-59.5L183.7,67
			c0.8,1.1,20.6,28.4,26.4,67.7C215.4,171.2,209.4,225.2,149.9,275z"/>
	</g>
	<g>
		
			<linearGradient id="SVGID_12_" gradientUnits="userSpaceOnUse" x1="161.2672" y1="-638.8521" x2="214.226" y2="-608.2764" gradientTransform="matrix(1 0 0 -1 0 -328)">
			<stop  offset="0" style="stop-color:#6534FF"/>
			<stop  offset="1" style="stop-color:#62BCFA"/>
		</linearGradient>
		<path class="st11" d="M231.4,336l-20-0.4l10,0.2l-10-0.2c0-0.3,0.2-32.3-19.6-49c-11.5-9.7-28.2-12.6-49.5-8.6l-3.7-19.7
			c27.5-5.2,49.8-0.8,66.1,13C231.8,294.3,231.4,334.3,231.4,336z"/>
		
			<linearGradient id="SVGID_13_" gradientUnits="userSpaceOnUse" x1="116.2581" y1="-556.9774" x2="167.2283" y2="-527.5498" gradientTransform="matrix(1 0 0 -1 0 -328)">
			<stop  offset="0" style="stop-color:#6534FF"/>
			<stop  offset="1" style="stop-color:#62BCFA"/>
		</linearGradient>
		<path class="st12" d="M146.6,276.2l-12.2-15.8l6.1,7.9l-6.1-7.9c0.2-0.1,19-15.2,18.4-36.2c-0.4-16.8-12.6-33.8-36.3-50.5
			l11.6-16.3c29.2,20.7,44.2,43.1,44.7,66.6C173.4,255.1,147.7,275.4,146.6,276.2z"/>
		
			<linearGradient id="SVGID_14_" gradientUnits="userSpaceOnUse" x1="165.4312" y1="-582.0355" x2="215.8371" y2="-552.9337" gradientTransform="matrix(1 0 0 -1 0 -328)">
			<stop  offset="0" style="stop-color:#6534FF"/>
			<stop  offset="1" style="stop-color:#62BCFA"/>
		</linearGradient>
		<path class="st13" d="M231.3,337.6l-19.7-3.6c9.9-53.6-2.3-96.5-36.2-127.4c-25.8-23.5-55.2-31.3-55.5-31.3l4.9-19.4
			c1.4,0.3,33.9,8.8,63.4,35.4C215.7,215.9,245.5,261.4,231.3,337.6z"/>
	</g>
	<g>
		
			<linearGradient id="SVGID_15_" gradientUnits="userSpaceOnUse" x1="228.7961" y1="-683.6616" x2="319.093" y2="-631.5286" gradientTransform="matrix(1 0 0 -1 0 -328)">
			<stop  offset="0" style="stop-color:#6534FF"/>
			<stop  offset="1" style="stop-color:#62BCFA"/>
		</linearGradient>
		<path class="st14" d="M319.7,344.1c-0.2-0.3-20.5-25.1-46.3-25.3c-15-0.1-29.7,8.2-43.5,24.9l-15.4-12.8
			c17.7-21.3,37.4-32.1,58.5-32.1c0.2,0,0.5,0,0.7,0c35.4,0.4,60.6,31.5,61.6,32.8L319.7,344.1z"/>
		
			<linearGradient id="SVGID_16_" gradientUnits="userSpaceOnUse" x1="163.0777" y1="-641.3693" x2="219.0868" y2="-609.0324" gradientTransform="matrix(1 0 0 -1 0 -328)">
			<stop  offset="0" style="stop-color:#6534FF"/>
			<stop  offset="1" style="stop-color:#62BCFA"/>
		</linearGradient>
		<path class="st15" d="M232,339.5l-19.5-4.4c0.1-0.2,5-23.7-8.8-39.7c-11-12.7-31.2-18.1-60.1-16l-1.4-19.9
			c35.7-2.6,61.5,5.2,76.8,23C239.2,306.2,232.3,338.2,232,339.5z"/>
		
			<linearGradient id="SVGID_17_" gradientUnits="userSpaceOnUse" x1="177.5592" y1="-659.3569" x2="296.0089" y2="-590.9698" gradientTransform="matrix(1 0 0 -1 0 -328)">
			<stop  offset="0" style="stop-color:#6534FF"/>
			<stop  offset="1" style="stop-color:#62BCFA"/>
		</linearGradient>
		<path class="st16" d="M318.9,342.8c-26.5-47.7-63.1-73-109-75.3c-34.9-1.7-62.5,11-62.8,11.1l-8.5-18.1
			c1.3-0.6,31.8-14.8,71.4-13.1c36.9,1.6,88.8,17.8,126.4,85.6L318.9,342.8z"/>
	</g>
	<g>
		
			<linearGradient id="SVGID_18_" gradientUnits="userSpaceOnUse" x1="310.488" y1="-650.4033" x2="413.5081" y2="-590.9246" gradientTransform="matrix(1 0 0 -1 0 -328)">
			<stop  offset="0" style="stop-color:#6534FF"/>
			<stop  offset="1" style="stop-color:#62BCFA"/>
		</linearGradient>
		<path class="st17" d="M318.8,336.8c-0.3-28,7.9-49.1,24.4-62.8c27.2-22.6,66.5-15.2,68.1-14.9l-3.8,19.6
			c-0.3-0.1-31.8-5.8-51.6,10.7c-11.5,9.6-17.3,25.5-17.1,47.2L318.8,336.8z"/>
		
			<linearGradient id="SVGID_19_" gradientUnits="userSpaceOnUse" x1="231.6549" y1="-682.1634" x2="320.7471" y2="-630.726" gradientTransform="matrix(1 0 0 -1 0 -328)">
			<stop  offset="0" style="stop-color:#6534FF"/>
			<stop  offset="1" style="stop-color:#62BCFA"/>
		</linearGradient>
		<path class="st18" d="M231.3,343.6l-14-14.3c25.5-25.1,50.2-35.9,73.4-32.3c30.9,4.9,46.3,33.7,46.9,35l-17.7,9.3
			c-0.1-0.2-11.6-21.3-32.5-24.5C270.8,314.3,252,323.3,231.3,343.6z"/>
		
			<linearGradient id="SVGID_20_" gradientUnits="userSpaceOnUse" x1="220.5655" y1="-669.5933" x2="400.3638" y2="-565.7866" gradientTransform="matrix(1 0 0 -1 0 -328)">
			<stop  offset="0" style="stop-color:#6534FF"/>
			<stop  offset="1" style="stop-color:#62BCFA"/>
		</linearGradient>
		<path class="st19" d="M233.4,340.6l-18.2-8.3c0.6-1.3,14.6-31.9,46-56.2c29.2-22.7,79.1-43.9,151.7-16.6l-7,18.7
			c-51-19.2-95.3-14.7-131.7,13.2C246.3,312.8,233.5,340.4,233.4,340.6z"/>
	</g>
	<g>
		
			<linearGradient id="SVGID_21_" gradientUnits="userSpaceOnUse" x1="308.1519" y1="-649.3675" x2="411.2354" y2="-589.8522" gradientTransform="matrix(1 0 0 -1 0 -328)">
			<stop  offset="0" style="stop-color:#6534FF"/>
			<stop  offset="1" style="stop-color:#62BCFA"/>
		</linearGradient>
		<path class="st20" d="M316.6,336c0-1.7-0.4-41.7,26.6-64.5c16.3-13.8,38.6-18.2,66.1-13l-3.7,19.7c-21.3-4-38-1.1-49.5,8.6
			c-19.9,16.8-19.5,48.5-19.5,48.9L316.6,336z"/>
		
			<linearGradient id="SVGID_22_" gradientUnits="userSpaceOnUse" x1="373.7426" y1="-566.0585" x2="444.972" y2="-524.9342" gradientTransform="matrix(1 0 0 -1 0 -328)">
			<stop  offset="0" style="stop-color:#6534FF"/>
			<stop  offset="1" style="stop-color:#62BCFA"/>
		</linearGradient>
		<path class="st21" d="M401.4,276.2c-1.1-0.8-26.8-21.1-26.2-52.3c0.5-23.5,15.5-45.9,44.7-66.6l11.6,16.3
			c-23.6,16.8-35.9,33.7-36.3,50.5c-0.5,21.1,18.2,36.1,18.4,36.2L401.4,276.2z"/>
		
			<linearGradient id="SVGID_23_" gradientUnits="userSpaceOnUse" x1="291.2921" y1="-621.4191" x2="449.8888" y2="-529.8532" gradientTransform="matrix(1 0 0 -1 0 -328)">
			<stop  offset="0" style="stop-color:#6534FF"/>
			<stop  offset="1" style="stop-color:#62BCFA"/>
		</linearGradient>
		<path class="st22" d="M316.8,337.6c-14.1-76.2,15.6-121.7,43.1-146.4c29.5-26.6,62.1-35,63.4-35.4l4.9,19.4l-2.4-9.7l2.5,9.7
			c-0.3,0.1-29.7,7.8-55.5,31.3c-34,31-46.1,73.8-36.2,127.4L316.8,337.6z"/>
	</g>
	<g>
		
			<linearGradient id="SVGID_24_" gradientUnits="userSpaceOnUse" x1="372.8851" y1="-562.6077" x2="442.0174" y2="-522.6942" gradientTransform="matrix(1 0 0 -1 0 -328)">
			<stop  offset="0" style="stop-color:#6534FF"/>
			<stop  offset="1" style="stop-color:#62BCFA"/>
		</linearGradient>
		<path class="st23" d="M396.9,273.7c-1.1-1.3-26.9-31.9-20.5-66.7c3.8-21,18.2-38.5,42.7-52l9.6,17.5c-19,10.5-30,23.3-32.7,38.1
			c-4.7,25.6,15.9,49.9,16.1,50.2L396.9,273.7z"/>
		
			<linearGradient id="SVGID_25_" gradientUnits="userSpaceOnUse" x1="363.7316" y1="-467.1579" x2="404.9976" y2="-443.333" gradientTransform="matrix(1 0 0 -1 0 -328)">
			<stop  offset="0" style="stop-color:#6534FF"/>
			<stop  offset="1" style="stop-color:#62BCFA"/>
		</linearGradient>
		<path class="st24" d="M423.3,173.7c-5.5,0-34.7-1.1-52.6-23.7c-14.6-18.4-17.3-45.2-8-79.7l19.3,5.2c-7.5,28-6.1,48.8,4.3,62
			c13,16.6,37.1,16.2,37.3,16.2l0.6,20C424.1,173.7,423.8,173.7,423.3,173.7z"/>
		
			<linearGradient id="SVGID_26_" gradientUnits="userSpaceOnUse" x1="338.2871" y1="-523.8046" x2="420.6113" y2="-476.2747" gradientTransform="matrix(1 0 0 -1 0 -328)">
			<stop  offset="0" style="stop-color:#6534FF"/>
			<stop  offset="1" style="stop-color:#62BCFA"/>
		</linearGradient>
		<path class="st25" d="M398.1,275c-59.4-49.8-65.5-103.8-60.1-140.3c5.8-39.3,25.5-66.5,26.4-67.7l16.1,11.8l-8.1-5.9l8.1,5.9
			c-0.2,0.2-17.9,25-22.8,59.5c-6.4,45.5,11.5,86.3,53.3,121.3L398.1,275z"/>
	</g>
	<g>
		
			<linearGradient id="SVGID_27_" gradientUnits="userSpaceOnUse" x1="365.0481" y1="-465.8958" x2="404.2207" y2="-443.2795" gradientTransform="matrix(1 0 0 -1 0 -328)">
			<stop  offset="0" style="stop-color:#6534FF"/>
			<stop  offset="1" style="stop-color:#62BCFA"/>
		</linearGradient>
		<path class="st26" d="M423.2,174.1c-1.7-0.3-41.1-6.8-58.9-37.5c-10.7-18.5-11.2-41.2-1.3-67.3l18.7,7.1
			c-7.7,20.3-7.7,37.2-0.1,50.2c13.1,22.5,44.4,27.7,44.7,27.8L423.2,174.1z"/>
		
			<linearGradient id="SVGID_28_" gradientUnits="userSpaceOnUse" x1="287.7568" y1="-409.3155" x2="356.8222" y2="-369.4406" gradientTransform="matrix(1 0 0 -1 0 -328)">
			<stop  offset="0" style="stop-color:#6534FF"/>
			<stop  offset="1" style="stop-color:#62BCFA"/>
		</linearGradient>
		<path class="st27" d="M334,97.9c-3.5,0-7.1-0.3-10.9-1.1c-23.1-4.6-42.5-23.3-57.8-55.6l18.1-8.6C295.8,59,310.5,74,327,77.2
			c20.5,4.1,38.5-11.7,38.7-11.8l13.5,14.8C378.2,81,359.3,97.9,334,97.9z"/>
		
			<linearGradient id="SVGID_29_" gradientUnits="userSpaceOnUse" x1="302.1542" y1="-458.4927" x2="383.9163" y2="-411.2873" gradientTransform="matrix(1 0 0 -1 0 -328)">
			<stop  offset="0" style="stop-color:#6534FF"/>
			<stop  offset="1" style="stop-color:#62BCFA"/>
		</linearGradient>
		<path class="st28" d="M423,174.2c-76.2,0-115.3-36.8-134.7-67.9c-21.1-33.7-23.7-67.2-23.8-68.6l19.9-1.5
			c0,0.3,2.6,30.6,21.2,60.1c24.6,38.8,64.7,58.3,119.2,57.8l0.2,20C424.3,174.2,423.6,174.2,423,174.2z"/>
	</g>
</g>
<g id="Layer_3">
	
		<linearGradient id="SVGID_30_" gradientUnits="userSpaceOnUse" x1="205.5926" y1="1467.6884" x2="239.4074" y2="1446.3116" gradientTransform="matrix(1 0 0 1 0 -1122)">
		<stop  offset="0" style="stop-color:#6534FF"/>
		<stop  offset="1" style="stop-color:#62BCFA"/>
	</linearGradient>
	<circle class="st29" cx="222.5" cy="335" r="20"/>
	
		<linearGradient id="SVGID_31_" gradientUnits="userSpaceOnUse" x1="125.5926" y1="1400.6884" x2="159.4074" y2="1379.3116" gradientTransform="matrix(1 0 0 1 0 -1122)">
		<stop  offset="0" style="stop-color:#6534FF"/>
		<stop  offset="1" style="stop-color:#62BCFA"/>
	</linearGradient>
	<circle class="st30" cx="142.5" cy="268" r="20"/>
	
		<linearGradient id="SVGID_32_" gradientUnits="userSpaceOnUse" x1="107.5926" y1="1297.6885" x2="141.4074" y2="1276.3115" gradientTransform="matrix(1 0 0 1 0 -1122)">
		<stop  offset="0" style="stop-color:#6534FF"/>
		<stop  offset="1" style="stop-color:#62BCFA"/>
	</linearGradient>
	<circle class="st31" cx="124.5" cy="165" r="20"/>
	
		<linearGradient id="SVGID_33_" gradientUnits="userSpaceOnUse" x1="159.5926" y1="1207.6885" x2="193.4074" y2="1186.3115" gradientTransform="matrix(1 0 0 1 0 -1122)">
		<stop  offset="0" style="stop-color:#6534FF"/>
		<stop  offset="1" style="stop-color:#62BCFA"/>
	</linearGradient>
	<circle class="st32" cx="176.5" cy="75" r="20"/>
	
		<linearGradient id="SVGID_34_" gradientUnits="userSpaceOnUse" x1="258.5926" y1="1171.6884" x2="292.4074" y2="1150.3116" gradientTransform="matrix(1 0 0 1 0 -1122)">
		<stop  offset="0" style="stop-color:#6534FF"/>
		<stop  offset="1" style="stop-color:#62BCFA"/>
	</linearGradient>
	<circle class="st33" cx="275.5" cy="39" r="20"/>
	
		<linearGradient id="SVGID_35_" gradientUnits="userSpaceOnUse" x1="310.5926" y1="1467.6884" x2="344.4074" y2="1446.3116" gradientTransform="matrix(1 0 0 1 0 -1122)">
		<stop  offset="0" style="stop-color:#6534FF"/>
		<stop  offset="1" style="stop-color:#62BCFA"/>
	</linearGradient>
	<circle class="st34" cx="327.5" cy="335" r="20"/>
	
		<linearGradient id="SVGID_36_" gradientUnits="userSpaceOnUse" x1="408.5926" y1="1297.6884" x2="442.4074" y2="1276.3116" gradientTransform="matrix(1 0 0 1 0 -1122)">
		<stop  offset="0" style="stop-color:#6534FF"/>
		<stop  offset="1" style="stop-color:#62BCFA"/>
	</linearGradient>
	<circle class="st35" cx="425.5" cy="165" r="20"/>
	
		<linearGradient id="SVGID_37_" gradientUnits="userSpaceOnUse" x1="390.5926" y1="1400.6884" x2="424.4074" y2="1379.3116" gradientTransform="matrix(1 0 0 1 0 -1122)">
		<stop  offset="0" style="stop-color:#6534FF"/>
		<stop  offset="1" style="stop-color:#62BCFA"/>
	</linearGradient>
	<circle class="st36" cx="407.5" cy="268" r="20"/>
	
		<linearGradient id="SVGID_38_" gradientUnits="userSpaceOnUse" x1="356.5926" y1="1207.6884" x2="390.4074" y2="1186.3116" gradientTransform="matrix(1 0 0 1 0 -1122)">
		<stop  offset="0" style="stop-color:#6534FF"/>
		<stop  offset="1" style="stop-color:#62BCFA"/>
	</linearGradient>
	<circle class="st37" cx="373.5" cy="75" r="20"/>
</g>
</svg>
