<?xml version="1.0" encoding="utf-8"?>
<!-- Generator: Adobe Illustrator 22.0.1, SVG Export Plug-In . SVG Version: 6.00 Build 0)  -->
<svg version="1.1" id="Layer_1" xmlns="http://www.w3.org/2000/svg" xmlns:xlink="http://www.w3.org/1999/xlink" x="0px" y="0px"
	 viewBox="0 0 379.6 374" style="enable-background:new 0 0 379.6 374;" xml:space="preserve">
<style type="text/css">
	.st0{fill:none;stroke:#7CA7FF;stroke-width:6;stroke-miterlimit:10;}
	.st1{fill:#FFFFFF;}
	.st2{fill:#673AB7;}
	.st3{fill:#009688;}
	.st4{fill:#CDDC39;}
	.st5{fill:#2196F3;}
</style>
<g>
	<polygon class="st0" points="189.8,18 77.8,58.7 18.2,161.9 38.9,279.2 130.2,355.8 249.4,355.8 340.6,279.2 361.4,161.9 
		301.8,58.7 	"/>
	<g>
		<path class="st0" d="M190.3,18"/>
		<path class="st0" d="M77.3,59.1"/>
		<path class="st0" d="M302.2,59.2"/>
		<path class="st0" d="M190.3,18.1"/>
		<path class="st0" d="M302.2,59.1c0,0-102.8,105-224.9,0"/>
	</g>
	<g>
		<path class="st0" d="M76.3,56.6"/>
		<path class="st0" d="M16.5,161"/>
		<path class="st0" d="M76.3,56.6c0,0,64.7,58.9,112-40.8"/>
		<path class="st0" d="M188.3,15.7c0,0-10.8,146.6-171.8,145.2"/>
	</g>
	<g>
		<path class="st0" d="M39.8,278.6c0,0,61.6-72-22.2-118.2"/>
		<path class="st0" d="M17.5,160.4c0,0,87.5,2.9,58.8-103.7"/>
		<path class="st0" d="M76.3,56.8c0,0,86.9,118.5-36.6,221.9"/>
	</g>
	<g>
		<path class="st0" d="M36.3,279.8"/>
		<path class="st0" d="M128.6,356.8"/>
		<path class="st0" d="M15.5,162.5c0,0,142.5,36,113.1,194.5"/>
	</g>
	<g>
		<path class="st0" d="M249.7,359.3c0,0-59-74.3-120.2-0.7"/>
		<path class="st0" d="M129.5,358.6c0,0,19.4-85.2-90.7-77.4"/>
		<path class="st0" d="M38.8,281.3c0,0,132.8-62.9,211,77.9"/>
	</g>
	<g>
		<path class="st0" d="M343.2,280.5c0,0-92.9-18.3-92,77.4"/>
		<path class="st0" d="M132,357.7"/>
		<path class="st0" d="M251.1,357.9"/>
		<path class="st0" d="M131.9,357.7c0,0,60.5-133.9,211.2-77.1"/>
	</g>
	<g>
		<path class="st0" d="M341,279.8"/>
		<path class="st0" d="M248.7,356.8"/>
		<path class="st0" d="M361.9,162.5"/>
		<path class="st0" d="M341.1,279.8"/>
		<path class="st0" d="M361.8,162.5c0,0-142.5,36-113.1,194.5"/>
	</g>
	<g>
		<path class="st0" d="M337.6,278.6c0,0-61.6-72,22.2-118.2"/>
		<path class="st0" d="M301,56.8"/>
		<path class="st0" d="M359.7,160.4"/>
		<path class="st0" d="M301,56.8c0,0-86.9,118.5,36.6,221.9"/>
	</g>
	<g>
		<path class="st0" d="M360.8,161c0,0-93.6-14.9-59.8-104.3"/>
		<path class="st0" d="M301,56.6c0,0-64.7,58.9-112-40.8"/>
		<path class="st0" d="M189.1,15.7c0,0,10.8,146.6,171.8,145.2"/>
	</g>
</g>
<g>
	<circle class="st1" cx="129.8" cy="355.9" r="17.8"/>
	<circle class="st1" cx="38.5" cy="279.5" r="18.3"/>
	<circle class="st1" cx="18" cy="161.9" r="17.9"/>
	<circle class="st1" cx="77.3" cy="59.1" r="17.7"/>
	<circle class="st1" cx="190.3" cy="18.1" r="18.1"/>
	<circle class="st1" cx="249.7" cy="355.9" r="17.8"/>
	<circle class="st1" cx="361.6" cy="161.9" r="17.9"/>
	<circle class="st1" cx="341.1" cy="279.5" r="18"/>
	<circle class="st1" cx="302.2" cy="59.1" r="17.7"/>
</g>
<rect y="-231" class="st2" width="104.5" height="104.5"/>
<rect x="104.5" y="-231" class="st3" width="104.5" height="104.5"/>
<rect x="209" y="-231" class="st4" width="104.5" height="104.5"/>
<rect x="313.5" y="-231" class="st5" width="104.5" height="104.5"/>
</svg>
