<?xml version="1.0" encoding="utf-8"?>
<!-- Generator: Adobe Illustrator 22.0.1, SVG Export Plug-In . SVG Version: 6.00 Build 0)  -->
<svg version="1.1" id="Layer_1" xmlns="http://www.w3.org/2000/svg" xmlns:xlink="http://www.w3.org/1999/xlink" x="0px" y="0px"
	 viewBox="0 0 77 75" style="enable-background:new 0 0 77 75;" xml:space="preserve">
<style type="text/css">
	.st0{fill:#002EC6;}
</style>
<g>
	<g>
		<path class="st0" d="M38.5,4.1C25.7,26.4,12.9,48.6,0.1,70.9h76.8C64.1,48.6,51.4,26.4,38.5,4.1z M38.5,18.6
			c1.5,2.7,3,5.2,4.6,7.9H34C35.5,23.9,37,21.3,38.5,18.6z M12.7,63.5c1.5-2.6,3-5.2,4.6-8c1.6,2.7,3,5.3,4.6,8H12.7z M55,49.2
			c-2.5,4.4-5,8.8-7.5,13.2c-0.4,0.6-0.8,0.8-1.5,0.8c-2.5,0-5,0-7.4,0c-2.5,0-5,0-7.4,0c-0.7,0-1.2-0.2-1.5-0.9
			c-2.5-4.3-5-8.6-7.4-13c-0.2-0.4-0.2-1.1,0-1.5c2.5-4.4,5-8.7,7.5-13.1c0.4-0.6,0.8-0.9,1.5-0.9c4.9,0,9.8,0,14.7,0
			c0.7,0,1.2,0.2,1.5,0.9c2.5,4.4,5,8.8,7.5,13.2C55.1,48.2,55.1,48.8,55,49.2z M59.7,55.5c1.6,2.8,3,5.3,4.5,7.9h-9.1
			C56.7,60.8,58.2,58.2,59.7,55.5z"/>
		<path class="st0" d="M38.5,4.1C25.7,26.4,12.9,48.6,0.1,70.9h76.8C64.1,48.6,51.4,26.4,38.5,4.1z M38.5,18.6
			c1.5,2.7,3,5.2,4.6,7.9H34C35.5,23.9,37,21.3,38.5,18.6z M12.7,63.5c1.5-2.6,3-5.2,4.6-8c1.6,2.7,3,5.3,4.6,8H12.7z M55,49.2
			c-2.5,4.4-5,8.8-7.5,13.2c-0.4,0.6-0.8,0.8-1.5,0.8c-2.5,0-5,0-7.4,0c-2.5,0-5,0-7.4,0c-0.7,0-1.2-0.2-1.5-0.9
			c-2.5-4.3-5-8.6-7.4-13c-0.2-0.4-0.2-1.1,0-1.5c2.5-4.4,5-8.7,7.5-13.1c0.4-0.6,0.8-0.9,1.5-0.9c4.9,0,9.8,0,14.7,0
			c0.7,0,1.2,0.2,1.5,0.9c2.5,4.4,5,8.8,7.5,13.2C55.1,48.2,55.1,48.8,55,49.2z M59.7,55.5c1.6,2.8,3,5.3,4.5,7.9h-9.1
			C56.7,60.8,58.2,58.2,59.7,55.5z"/>
	</g>
</g>
</svg>
