<?xml version="1.0" encoding="utf-8"?>
<!-- Generator: Adobe Illustrator 22.0.1, SVG Export Plug-In . SVG Version: 6.00 Build 0)  -->
<svg version="1.1" xmlns="http://www.w3.org/2000/svg" xmlns:xlink="http://www.w3.org/1999/xlink" x="0px" y="0px"
	 viewBox="0 0 1000 1000" style="enable-background:new 0 0 1000 1000;" xml:space="preserve">
<style type="text/css">
	.st0{fill:#0F0F23;}
	.st1{fill:none;stroke:#FFFFFF;stroke-width:14;stroke-miterlimit:10;}
	.st2{fill:#0F0F23;stroke:#FFFFFF;stroke-width:14;stroke-miterlimit:10;}
	.st3{fill:#0F0F23;stroke:#FFFFFF;stroke-width:20;stroke-miterlimit:10;}
</style>
<g id="Layer_1">
	<g>
		<path class="st0" d="M1000,500c0,276.1-223.9,500-500,500S0,776.1,0,500c0-156.7,72.1-296.6,185-388.3c6.5-5.3,13.2-10.5,20-15.4
			c49.8-36.5,106.6-63.9,168-80c6.6-1.7,13.3-3.3,20-4.8C427.5,4,463.3,0,500,0C776.1,0,1000,223.9,1000,500z"/>
	</g>
</g>
<g id="Layer_2">
	<rect x="368.9" y="369" class="st1" width="262" height="262"/>
	<rect x="429.6" y="349.8" class="st0" width="140.6" height="300.5"/>
	
		<rect x="429.6" y="350.5" transform="matrix(-1.836970e-16 1 -1 -1.836970e-16 999.9351 6.497175e-02)" class="st0" width="140.6" height="299"/>
	<rect x="406.7" y="406.7" class="st2" width="186.5" height="186.5"/>
	<rect x="406.7" y="406.7" class="st3" width="186.5" height="186.5"/>
</g>
<g id="Layer_3">
	<line class="st2" x1="522.1" y1="557.7" x2="558.4" y2="557.7"/>
	<line class="st1" x1="499.9" y1="376.4" x2="499.9" y2="238"/>
	<polyline class="st1" points="555.4,238 555.4,275 536.6,293.9 536.6,376.4 	"/>
	<polyline class="st1" points="444.1,238 444.1,275 462.9,293.9 462.9,376.4 	"/>
	<line class="st1" x1="499.6" y1="623.6" x2="499.6" y2="762"/>
	<polyline class="st1" points="444.1,762 444.1,725 462.9,706.1 462.9,623.6 	"/>
	<polyline class="st1" points="555.4,762 555.4,725 536.6,706.1 536.6,623.6 	"/>
	<line class="st1" x1="623.3" y1="500.2" x2="761.8" y2="500.2"/>
	<polyline class="st1" points="761.8,555.7 724.7,555.7 705.9,536.8 623.3,536.8 	"/>
	<polyline class="st1" points="761.8,444.3 724.7,444.3 705.9,463.2 623.3,463.2 	"/>
	<line class="st1" x1="376.2" y1="499.8" x2="237.8" y2="499.8"/>
	<polyline class="st1" points="237.8,444.3 274.8,444.3 293.6,463.2 376.2,463.2 	"/>
	<polyline class="st1" points="237.8,555.7 274.8,555.7 293.6,536.8 376.2,536.8 	"/>
</g>
</svg>
