<?xml version="1.0" encoding="utf-8"?>
<!-- Generator: Adobe Illustrator 22.0.1, SVG Export Plug-In . SVG Version: 6.00 Build 0)  -->
<svg version="1.1" id="Layer_1" xmlns="http://www.w3.org/2000/svg" xmlns:xlink="http://www.w3.org/1999/xlink" x="0px" y="0px"
	 viewBox="0 0 1000 1000" style="enable-background:new 0 0 1000 1000;" xml:space="preserve">
<style type="text/css">
	.st0{fill:#0F0F23;}
</style>
<g id="Layer_1_1_">
	<g>
		<path class="st0" d="M1000,500c0,208.3-127.4,386.9-308.6,462c-5,2.1-10,4-15,5.9c-54.9,20.7-114.3,32-176.4,32
			c-59.3,0-116.3-10.3-169.1-29.3c-5-1.8-10-3.7-15-5.7C130.9,891.7,0,711.1,0,500c0-156.7,72.1-296.6,185-388.3
			c6.5-5.3,13.2-10.5,20-15.4c49.8-36.5,106.6-63.9,168-80c6.6-1.7,13.3-3.3,20-4.8C427.5,4,463.3,0,500,0
			C776.1,0,1000,223.9,1000,500z"/>
	</g>
</g>
</svg>
