<svg xmlns="http://www.w3.org/2000/svg" viewBox="0 0 3298 2000"><defs><style>.cls-1{fill:#ddd;}.cls-2{opacity:0.3;}.cls-3{fill:#0f0f23;}.cls-4{fill:#1a237e;}.cls-5{fill:#3f94c4;}.cls-6{fill:#294baa;}</style></defs><title>home-bg</title><g id="Bg"><rect class="cls-1" width="3000" height="2000"/></g><g id="Shadow"><g class="cls-2"><polygon class="cls-3" points="3000 298.87 3000 778.87 2419.43 1359.43 2179.44 1119.44 2179.44 1119.43 3000 298.87"/><path class="cls-3" d="M2770.59,1710.59l-351.16-351.16-240-240-145,144.94-240-240L2005,813.87H1104L811.4,521.29,585.91,746.78,50,210.87V1733.68l535.91-535.92L811.4,972.27l101.37,101.38,53.84,53.84L741.13,1353l602.38,602.39L1298.87,2000H3000V1710.59Z"/></g></g><g id="Main_Shapes" data-name="Main Shapes"><polygon class="cls-4" points="0 160.87 535.91 696.78 0 696.78 0 160.87"/><polygon class="cls-5" points="0 1232.7 535.91 696.78 0 696.78 0 1232.7"/><rect class="cls-4" x="376.47" y="762.83" width="318.89" height="318.89" transform="translate(-495.18 649.08) rotate(-45)"/><rect class="cls-6" x="945.62" y="1065.47" width="318.89" height="851.9" transform="translate(-730.93 1218.23) rotate(-45)"/><polygon class="cls-6" points="535.91 1147.76 0 1683.68 0 1232.7 310.42 922.27 535.91 1147.76"/><rect class="cls-5" x="652.65" y="516.34" width="318.89" height="462.26" transform="translate(-290.69 793.16) rotate(-45)"/><rect class="cls-4" x="1144.19" y="774.99" width="318.89" height="928.04" transform="translate(-494.29 1284.71) rotate(-45)"/><polygon class="cls-6" points="1053.98 763.87 1504.49 1214.38 1504.49 763.87 1053.98 763.87"/><polygon class="cls-4" points="1955 763.87 1504.49 1214.38 1504.49 763.87 1955 763.87"/><rect class="cls-5" x="1574.78" y="1044.68" width="339.41" height="339.41" transform="translate(-347.75 1589.22) rotate(-45)"/><polygon class="cls-4" points="3000 198.87 3000 678.87 2369.43 1309.43 2129.43 1069.43 3000 198.87"/><rect class="cls-6" x="2129.43" y="1660.59" width="339.41" height="339.41"/><rect class="cls-4" x="2468.85" y="1660.59" width="531.15" height="339.41"/><polygon class="cls-4" points="1198.87 2000 2129.43 1069.43 2129.43 2000 1198.87 2000"/><polygon class="cls-5" points="2720.59 1660.59 2129.43 1069.43 2129.43 1660.59 2720.59 1660.59"/></g><g id="Color"><rect class="cls-3" x="3077" width="221" height="221"/><rect class="cls-4" x="3077" y="221" width="221" height="221"/><rect class="cls-1" x="3077" y="442" width="221" height="221"/></g></svg>