<?xml version="1.0" encoding="utf-8"?>
<!-- Generator: Adobe Illustrator 22.0.1, SVG Export Plug-In . SVG Version: 6.00 Build 0)  -->
<svg version="1.1" xmlns="http://www.w3.org/2000/svg" xmlns:xlink="http://www.w3.org/1999/xlink" x="0px" y="0px"
	 viewBox="0 0 3000 2000" style="enable-background:new 0 0 3000 2000;" xml:space="preserve">
<style type="text/css">
	.st0{fill:#0F0F23;}
	.st1{fill:#1A237E;}
	.st2{fill:#2859B2;}
	.st3{fill:#DDDDDD;}
	.st4{display:none;}
	.st5{display:inline;fill:none;stroke:#0F0F23;stroke-miterlimit:10;}
	.st6{opacity:0.5;fill:#0F0F23;}
</style>
<g id="Color">
	<rect x="3077" class="st0" width="221" height="221"/>
	<g>
		<rect x="3077" y="221" class="st1" width="221" height="221"/>
	</g>
	<g>
		<rect x="3077" y="442" class="st2" width="221" height="221"/>
	</g>
	<rect x="3077" y="663" class="st3" width="221" height="221"/>
</g>
<g id="Layer_3" class="st4">
	<polyline class="st5" points="0,209.9 60.6,174.9 322.9,23.4 363.5,0 	"/>
	<polyline class="st5" points="888.1,0 847.4,23.5 585.2,174.9 322.9,326.3 60.6,477.7 0,512.7 	"/>
	<polyline class="st5" points="1412.6,0 1372,23.5 1109.7,174.9 847.5,326.3 585.2,477.7 322.9,629.2 60.6,780.6 0,815.6 	"/>
	<polyline class="st5" points="0,1118.4 60.6,1083.4 322.9,932 585.2,780.6 847.5,629.2 1109.7,477.7 1372,326.3 1634.3,174.9 
		1896.6,23.4 1937.2,0 	"/>
	<polyline class="st5" points="0,1421.3 60.6,1386.3 322.9,1234.8 585.2,1083.4 847.4,932 1109.7,780.6 1109.7,780.6 1372,629.2 
		1634.3,477.7 1896.6,326.3 2158.8,174.9 2421.1,23.5 2461.7,0 	"/>
	<polyline class="st5" points="2986.3,0 2945.7,23.5 2683.4,174.9 2421.1,326.3 2158.8,477.7 1896.6,629.2 1634.3,780.6 1372,932 
		1109.7,1083.4 847.5,1234.8 585.2,1386.3 322.9,1537.7 60.6,1689.1 0,1724.1 	"/>
	<polyline class="st5" points="3000,294.9 2945.7,326.3 2683.4,477.7 2421.1,629.2 2158.8,780.6 1896.6,932 1634.3,1083.4 
		1634.3,1083.4 1372,1234.8 1109.7,1386.3 847.5,1537.7 585.2,1689.1 322.9,1840.6 60.6,1992 46.7,2000 	"/>
	<polyline class="st5" points="571.3,2000 585.2,1992 847.4,1840.6 1109.7,1689.1 1372,1537.7 1634.3,1386.3 1896.6,1234.8 
		2158.8,1083.4 2421.1,932 2683.4,780.6 2683.4,780.6 2945.7,629.2 2945.7,629.2 3000,597.8 	"/>
	<polyline class="st5" points="1095.8,2000 1109.7,1992 1372,1840.6 1634.3,1689.1 1896.6,1537.7 2158.8,1386.3 2421.1,1234.8 
		2683.4,1083.4 2945.7,932 3000,900.6 	"/>
	<polyline class="st5" points="1620.4,2000 1634.3,1992 1896.6,1840.6 2158.8,1689.1 2421.1,1537.7 2683.4,1386.3 2945.7,1234.8 
		3000,1203.5 	"/>
	<polyline class="st5" points="2144.9,2000 2158.8,1992 2158.8,1992 2421.1,1840.6 2683.4,1689.1 2945.7,1537.7 3000,1506.3 	"/>
	<polyline class="st5" points="2669.5,2000 2683.4,1992 2945.7,1840.6 3000,1809.2 	"/>
	<polyline class="st5" points="3000,54.8 2945.7,23.5 2905.1,0 	"/>
	<polyline class="st5" points="3000,357.7 2945.7,326.3 2683.4,174.9 2421.1,23.5 2380.5,0 	"/>
	<polyline class="st5" points="1855.9,0 1896.6,23.4 2158.8,174.9 2421.1,326.3 2683.4,477.7 2945.7,629.2 2945.7,629.2 3000,660.5 
			"/>
	<polyline class="st5" points="1331.4,0 1372,23.5 1634.3,174.9 1896.6,326.3 2158.8,477.7 2421.1,629.2 2683.4,780.6 2683.4,780.6 
		2945.7,932 3000,963.4 	"/>
	<polyline class="st5" points="3000,1266.2 2945.7,1234.8 2683.4,1083.4 2421.1,932 2158.8,780.6 1896.6,629.2 1634.3,477.7 
		1372,326.3 1109.7,174.9 847.4,23.5 806.8,0 	"/>
	<polyline class="st5" points="3000,1569.1 2945.7,1537.7 2683.4,1386.3 2421.1,1234.8 2158.8,1083.4 1896.6,932 1634.3,780.6 
		1372,629.2 1109.7,477.7 847.5,326.3 585.2,174.9 322.9,23.4 282.3,0 	"/>
	<polyline class="st5" points="0,139.9 60.6,174.9 322.9,326.3 585.2,477.7 847.5,629.2 1109.7,780.6 1109.7,780.6 1372,932 
		1634.3,1083.4 1634.3,1083.4 1896.6,1234.8 2158.8,1386.3 2421.1,1537.7 2683.4,1689.1 2945.7,1840.6 3000,1871.9 	"/>
	<polyline class="st5" points="2697.3,2000 2683.4,1992 2421.1,1840.6 2158.8,1689.1 1896.6,1537.7 1634.3,1386.3 1372,1234.8 
		1109.7,1083.4 847.4,932 585.2,780.6 322.9,629.2 60.6,477.7 0,442.7 	"/>
	<polyline class="st5" points="2172.7,2000 2158.8,1992 2158.8,1992 1896.6,1840.6 1634.3,1689.1 1372,1537.7 1109.7,1386.3 
		847.5,1234.8 585.2,1083.4 322.9,932 60.6,780.6 0,745.6 	"/>
	<polyline class="st5" points="1648.2,2000 1634.3,1992 1372,1840.6 1109.7,1689.1 847.5,1537.7 585.2,1386.3 322.9,1234.8 
		60.6,1083.4 0,1048.4 	"/>
	<polyline class="st5" points="1123.6,2000 1109.7,1992 847.4,1840.6 585.2,1689.1 322.9,1537.7 60.6,1386.3 0,1351.3 	"/>
	<polyline class="st5" points="0,1654.1 60.6,1689.1 322.9,1840.6 585.2,1992 599.1,2000 	"/>
	<polyline class="st5" points="0,1957 60.6,1992 74.5,2000 	"/>
	<rect class="st5" width="3000" height="2000"/>
</g>
<g id="Layer_2">
	<rect x="2409.4" y="1499" class="st6" width="23.4" height="77.4"/>
	
		<rect x="2409.4" y="1499" transform="matrix(-1.836970e-16 1 -1 -1.836970e-16 3958.8101 -883.41)" class="st6" width="23.4" height="77.4"/>
	<rect x="2934" y="1498.9" class="st6" width="23.4" height="77.4"/>
	
		<rect x="2934" y="1498.9" transform="matrix(-1.836970e-16 1 -1 -1.836970e-16 4483.27 -1408.12)" class="st6" width="23.4" height="77.4"/>
	<rect x="1360.3" y="1499" class="st6" width="23.4" height="77.4"/>
	
		<rect x="1360.3" y="1499" transform="matrix(-1.836970e-16 1 -1 -1.836970e-16 2909.6826 165.7175)" class="st6" width="23.4" height="77.4"/>
	<rect x="1884.9" y="1498.9" class="st6" width="23.4" height="77.4"/>
	
		<rect x="1884.9" y="1498.9" transform="matrix(-1.836970e-16 1 -1 -1.836970e-16 3434.1426 -358.9925)" class="st6" width="23.4" height="77.4"/>
	<rect x="309.3" y="1499" class="st6" width="23.4" height="77.4"/>
	
		<rect x="309.3" y="1499" transform="matrix(-1.836970e-16 1 -1 -1.836970e-16 1858.6899 1216.71)" class="st6" width="23.4" height="77.4"/>
	<rect x="833.9" y="1498.9" class="st6" width="23.4" height="77.4"/>
	
		<rect x="833.9" y="1498.9" transform="matrix(-1.836970e-16 1 -1 -1.836970e-16 2383.1499 692)" class="st6" width="23.4" height="77.4"/>
	<rect x="2409.4" y="1800.8" class="st6" width="23.4" height="77.4"/>
	
		<rect x="2409.4" y="1800.8" transform="matrix(-1.836970e-16 1 -1 -1.836970e-16 4260.6396 -581.5804)" class="st6" width="23.4" height="77.4"/>
	<rect x="2934" y="1800.7" class="st6" width="23.4" height="77.4"/>
	
		<rect x="2934" y="1800.7" transform="matrix(-1.836970e-16 1 -1 -1.836970e-16 4785.0996 -1106.2904)" class="st6" width="23.4" height="77.4"/>
	<rect x="1360.3" y="1800.8" class="st6" width="23.4" height="77.4"/>
	
		<rect x="1360.3" y="1800.8" transform="matrix(-1.836970e-16 1 -1 -1.836970e-16 3211.5122 467.5471)" class="st6" width="23.4" height="77.4"/>
	<rect x="1884.9" y="1800.7" class="st6" width="23.4" height="77.4"/>
	
		<rect x="1884.9" y="1800.7" transform="matrix(-1.836970e-16 1 -1 -1.836970e-16 3735.9722 -57.1629)" class="st6" width="23.4" height="77.4"/>
	<rect x="309.3" y="1800.8" class="st6" width="23.4" height="77.4"/>
	
		<rect x="309.3" y="1800.8" transform="matrix(-1.836970e-16 1 -1 -1.836970e-16 2160.5195 1518.5396)" class="st6" width="23.4" height="77.4"/>
	<rect x="833.9" y="1800.7" class="st6" width="23.4" height="77.4"/>
	
		<rect x="833.9" y="1800.7" transform="matrix(-1.836970e-16 1 -1 -1.836970e-16 2684.9795 993.8296)" class="st6" width="23.4" height="77.4"/>
	<rect x="2409.4" y="1197.3" class="st6" width="23.4" height="77.4"/>
	
		<rect x="2409.4" y="1197.3" transform="matrix(-1.836970e-16 1 -1 -1.836970e-16 3657.1055 -1185.1146)" class="st6" width="23.4" height="77.4"/>
	<rect x="2934" y="1197.2" class="st6" width="23.4" height="77.4"/>
	
		<rect x="2934" y="1197.2" transform="matrix(-1.836970e-16 1 -1 -1.836970e-16 4181.5654 -1709.8246)" class="st6" width="23.4" height="77.4"/>
	<rect x="1360.3" y="1197.3" class="st6" width="23.4" height="77.4"/>
	
		<rect x="1360.3" y="1197.3" transform="matrix(-1.836970e-16 1 -1 -1.836970e-16 2607.978 -135.9871)" class="st6" width="23.4" height="77.4"/>
	<rect x="1884.9" y="1197.2" class="st6" width="23.4" height="77.4"/>
	
		<rect x="1884.9" y="1197.2" transform="matrix(-1.836970e-16 1 -1 -1.836970e-16 3132.438 -660.6971)" class="st6" width="23.4" height="77.4"/>
	<rect x="309.3" y="1197.3" class="st6" width="23.4" height="77.4"/>
	
		<rect x="309.3" y="1197.3" transform="matrix(-1.836970e-16 1 -1 -1.836970e-16 1556.9854 915.0054)" class="st6" width="23.4" height="77.4"/>
	<rect x="833.9" y="1197.2" class="st6" width="23.4" height="77.4"/>
	
		<rect x="833.9" y="1197.2" transform="matrix(-1.836970e-16 1 -1 -1.836970e-16 2081.4453 390.2954)" class="st6" width="23.4" height="77.4"/>
	<rect x="2409.4" y="894" class="st6" width="23.4" height="77.4"/>
	
		<rect x="2409.4" y="894" transform="matrix(-1.836970e-16 1 -1 -1.836970e-16 3353.8289 -1488.3912)" class="st6" width="23.4" height="77.4"/>
	<rect x="2934" y="893.9" class="st6" width="23.4" height="77.4"/>
	
		<rect x="2934" y="893.9" transform="matrix(-1.836970e-16 1 -1 -1.836970e-16 3878.2888 -2013.1012)" class="st6" width="23.4" height="77.4"/>
	<rect x="1360.3" y="894" class="st6" width="23.4" height="77.4"/>
	
		<rect x="1360.3" y="894" transform="matrix(-1.836970e-16 1 -1 -1.836970e-16 2304.7014 -439.2637)" class="st6" width="23.4" height="77.4"/>
	<rect x="1884.9" y="893.9" class="st6" width="23.4" height="77.4"/>
	
		<rect x="1884.9" y="893.9" transform="matrix(-1.836970e-16 1 -1 -1.836970e-16 2829.1614 -963.9737)" class="st6" width="23.4" height="77.4"/>
	<rect x="309.3" y="894" class="st6" width="23.4" height="77.4"/>
	
		<rect x="309.3" y="894" transform="matrix(-1.836970e-16 1 -1 -1.836970e-16 1253.7089 611.7288)" class="st6" width="23.4" height="77.4"/>
	<rect x="833.9" y="893.9" class="st6" width="23.4" height="77.4"/>
	
		<rect x="833.9" y="893.9" transform="matrix(-1.836970e-16 1 -1 -1.836970e-16 1778.1688 87.0188)" class="st6" width="23.4" height="77.4"/>
	<rect x="2409.4" y="590.7" class="st6" width="23.4" height="77.4"/>
	
		<rect x="2409.4" y="590.7" transform="matrix(-1.836970e-16 1 -1 -1.836970e-16 3050.5522 -1791.6677)" class="st6" width="23.4" height="77.4"/>
	<rect x="2934" y="590.6" class="st6" width="23.4" height="77.4"/>
	
		<rect x="2934" y="590.6" transform="matrix(-1.836970e-16 1 -1 -1.836970e-16 3575.0122 -2316.3777)" class="st6" width="23.4" height="77.4"/>
	<rect x="1360.3" y="590.7" class="st6" width="23.4" height="77.4"/>
	
		<rect x="1360.3" y="590.7" transform="matrix(-1.836970e-16 1 -1 -1.836970e-16 2001.4247 -742.5403)" class="st6" width="23.4" height="77.4"/>
	<rect x="1884.9" y="590.6" class="st6" width="23.4" height="77.4"/>
	
		<rect x="1884.9" y="590.6" transform="matrix(-1.836970e-16 1 -1 -1.836970e-16 2525.8848 -1267.2502)" class="st6" width="23.4" height="77.4"/>
	<rect x="309.3" y="590.7" class="st6" width="23.4" height="77.4"/>
	
		<rect x="309.3" y="590.7" transform="matrix(-1.836970e-16 1 -1 -1.836970e-16 950.4323 308.4522)" class="st6" width="23.4" height="77.4"/>
	<rect x="833.9" y="590.6" class="st6" width="23.4" height="77.4"/>
	
		<rect x="833.9" y="590.6" transform="matrix(-1.836970e-16 1 -1 -1.836970e-16 1474.8922 -216.2578)" class="st6" width="23.4" height="77.4"/>
	<rect x="2409.4" y="287.5" class="st6" width="23.4" height="77.4"/>
	
		<rect x="2409.4" y="287.5" transform="matrix(-1.836970e-16 1 -1 -1.836970e-16 2747.2756 -2094.9443)" class="st6" width="23.4" height="77.4"/>
	<rect x="2934" y="287.3" class="st6" width="23.4" height="77.4"/>
	
		<rect x="2934" y="287.3" transform="matrix(-1.836970e-16 1 -1 -1.836970e-16 3271.7356 -2619.6543)" class="st6" width="23.4" height="77.4"/>
	<rect x="1360.3" y="287.5" class="st6" width="23.4" height="77.4"/>
	
		<rect x="1360.3" y="287.5" transform="matrix(-1.836970e-16 1 -1 -1.836970e-16 1698.1482 -1045.8169)" class="st6" width="23.4" height="77.4"/>
	<rect x="1884.9" y="287.3" class="st6" width="23.4" height="77.4"/>
	
		<rect x="1884.9" y="287.3" transform="matrix(-1.836970e-16 1 -1 -1.836970e-16 2222.6082 -1570.5269)" class="st6" width="23.4" height="77.4"/>
	<rect x="309.3" y="287.5" class="st6" width="23.4" height="77.4"/>
	
		<rect x="309.3" y="287.5" transform="matrix(-1.836970e-16 1 -1 -1.836970e-16 647.1556 5.1757)" class="st6" width="23.4" height="77.4"/>
	<rect x="833.9" y="287.3" class="st6" width="23.4" height="77.4"/>
	
		<rect x="833.9" y="287.3" transform="matrix(-1.836970e-16 1 -1 -1.836970e-16 1171.6156 -519.5344)" class="st6" width="23.4" height="77.4"/>
	<rect x="2409.4" y="-15.8" class="st6" width="23.4" height="77.4"/>
	
		<rect x="2409.4" y="-15.8" transform="matrix(-1.836970e-16 1 -1 -1.836970e-16 2443.999 -2398.2209)" class="st6" width="23.4" height="77.4"/>
	<rect x="2934" y="-15.9" class="st6" width="23.4" height="77.4"/>
	
		<rect x="2934" y="-15.9" transform="matrix(-1.836970e-16 1 -1 -1.836970e-16 2968.459 -2922.9309)" class="st6" width="23.4" height="77.4"/>
	<rect x="1360.3" y="-15.8" class="st6" width="23.4" height="77.4"/>
	
		<rect x="1360.3" y="-15.8" transform="matrix(-1.836970e-16 1 -1 -1.836970e-16 1394.8716 -1349.0934)" class="st6" width="23.4" height="77.4"/>
	<rect x="1884.9" y="-15.9" class="st6" width="23.4" height="77.4"/>
	
		<rect x="1884.9" y="-15.9" transform="matrix(-1.836970e-16 1 -1 -1.836970e-16 1919.3315 -1873.8035)" class="st6" width="23.4" height="77.4"/>
	<rect x="309.3" y="-15.8" class="st6" width="23.4" height="77.4"/>
	
		<rect x="309.3" y="-15.8" transform="matrix(-1.836970e-16 1 -1 -1.836970e-16 343.8791 -298.1009)" class="st6" width="23.4" height="77.4"/>
	<rect x="833.9" y="-15.9" class="st6" width="23.4" height="77.4"/>
	
		<rect x="833.9" y="-15.9" transform="matrix(-1.836970e-16 1 -1 -1.836970e-16 868.3391 -822.8109)" class="st6" width="23.4" height="77.4"/>
	<rect x="2147.4" y="1650.3" class="st6" width="23.4" height="77.4"/>
	
		<rect x="2147.4" y="1650.3" transform="matrix(-1.836970e-16 1 -1 -1.836970e-16 3848.1433 -470.0767)" class="st6" width="23.4" height="77.4"/>
	<rect x="2672" y="1650.2" class="st6" width="23.4" height="77.4"/>
	
		<rect x="2672" y="1650.2" transform="matrix(-1.836970e-16 1 -1 -1.836970e-16 4372.6035 -994.7867)" class="st6" width="23.4" height="77.4"/>
	<rect x="1098.3" y="1650.3" class="st6" width="23.4" height="77.4"/>
	
		<rect x="1098.3" y="1650.3" transform="matrix(-1.836970e-16 1 -1 -1.836970e-16 2799.0159 579.0508)" class="st6" width="23.4" height="77.4"/>
	<rect x="1622.9" y="1650.2" class="st6" width="23.4" height="77.4"/>
	
		<rect x="1622.9" y="1650.2" transform="matrix(-1.836970e-16 1 -1 -1.836970e-16 3323.4758 54.3408)" class="st6" width="23.4" height="77.4"/>
	<rect x="47.3" y="1650.3" class="st6" width="23.4" height="77.4"/>
	
		<rect x="47.3" y="1650.3" transform="matrix(-1.836970e-16 1 -1 -1.836970e-16 1748.0233 1630.0433)" class="st6" width="23.4" height="77.4"/>
	<rect x="571.9" y="1650.2" class="st6" width="23.4" height="77.4"/>
	
		<rect x="571.9" y="1650.2" transform="matrix(-1.836970e-16 1 -1 -1.836970e-16 2272.4834 1105.3334)" class="st6" width="23.4" height="77.4"/>
	<rect x="2147.4" y="1952.2" class="st6" width="23.4" height="77.4"/>
	
		<rect x="2147.4" y="1952.2" transform="matrix(-1.836970e-16 1 -1 -1.836970e-16 4149.9731 -168.2471)" class="st6" width="23.4" height="77.4"/>
	<rect x="2672" y="1952" class="st6" width="23.4" height="77.4"/>
	
		<rect x="2672" y="1952" transform="matrix(-1.836970e-16 1 -1 -1.836970e-16 4674.4331 -692.9571)" class="st6" width="23.4" height="77.4"/>
	<rect x="1098.3" y="1952.2" class="st6" width="23.4" height="77.4"/>
	
		<rect x="1098.3" y="1952.2" transform="matrix(-1.836970e-16 1 -1 -1.836970e-16 3100.8455 880.8804)" class="st6" width="23.4" height="77.4"/>
	<rect x="1622.9" y="1952" class="st6" width="23.4" height="77.4"/>
	
		<rect x="1622.9" y="1952" transform="matrix(-1.836970e-16 1 -1 -1.836970e-16 3625.3054 356.1704)" class="st6" width="23.4" height="77.4"/>
	<rect x="47.3" y="1952.2" class="st6" width="23.4" height="77.4"/>
	
		<rect x="47.3" y="1952.2" transform="matrix(-1.836970e-16 1 -1 -1.836970e-16 2049.853 1931.8729)" class="st6" width="23.4" height="77.4"/>
	<rect x="571.9" y="1952" class="st6" width="23.4" height="77.4"/>
	
		<rect x="571.9" y="1952" transform="matrix(-1.836970e-16 1 -1 -1.836970e-16 2574.313 1407.163)" class="st6" width="23.4" height="77.4"/>
	<rect x="2147.4" y="1348.6" class="st6" width="23.4" height="77.4"/>
	
		<rect x="2147.4" y="1348.6" transform="matrix(-1.836970e-16 1 -1 -1.836970e-16 3546.4387 -771.7813)" class="st6" width="23.4" height="77.4"/>
	<rect x="2672" y="1348.5" class="st6" width="23.4" height="77.4"/>
	
		<rect x="2672" y="1348.5" transform="matrix(-1.836970e-16 1 -1 -1.836970e-16 4070.8987 -1296.4912)" class="st6" width="23.4" height="77.4"/>
	<rect x="1098.3" y="1348.6" class="st6" width="23.4" height="77.4"/>
	
		<rect x="1098.3" y="1348.6" transform="matrix(-1.836970e-16 1 -1 -1.836970e-16 2497.3113 277.3463)" class="st6" width="23.4" height="77.4"/>
	<rect x="1622.9" y="1348.5" class="st6" width="23.4" height="77.4"/>
	
		<rect x="1622.9" y="1348.5" transform="matrix(-1.836970e-16 1 -1 -1.836970e-16 3021.7712 -247.3638)" class="st6" width="23.4" height="77.4"/>
	<rect x="47.3" y="1348.6" class="st6" width="23.4" height="77.4"/>
	
		<rect x="47.3" y="1348.6" transform="matrix(-1.836970e-16 1 -1 -1.836970e-16 1446.3187 1328.3387)" class="st6" width="23.4" height="77.4"/>
	<rect x="571.9" y="1348.5" class="st6" width="23.4" height="77.4"/>
	
		<rect x="571.9" y="1348.5" transform="matrix(-1.836970e-16 1 -1 -1.836970e-16 1970.7787 803.6287)" class="st6" width="23.4" height="77.4"/>
	<rect x="2147.4" y="1045.4" class="st6" width="23.4" height="77.4"/>
	
		<rect x="2147.4" y="1045.4" transform="matrix(-1.836970e-16 1 -1 -1.836970e-16 3243.1621 -1075.0579)" class="st6" width="23.4" height="77.4"/>
	<rect x="2672" y="1045.2" class="st6" width="23.4" height="77.4"/>
	
		<rect x="2672" y="1045.2" transform="matrix(-1.836970e-16 1 -1 -1.836970e-16 3767.6221 -1599.7678)" class="st6" width="23.4" height="77.4"/>
	<rect x="1098.3" y="1045.4" class="st6" width="23.4" height="77.4"/>
	
		<rect x="1098.3" y="1045.4" transform="matrix(-1.836970e-16 1 -1 -1.836970e-16 2194.0347 -25.9303)" class="st6" width="23.4" height="77.4"/>
	<rect x="1622.9" y="1045.2" class="st6" width="23.4" height="77.4"/>
	
		<rect x="1622.9" y="1045.2" transform="matrix(-1.836970e-16 1 -1 -1.836970e-16 2718.4946 -550.6403)" class="st6" width="23.4" height="77.4"/>
	<rect x="47.3" y="1045.4" class="st6" width="23.4" height="77.4"/>
	
		<rect x="47.3" y="1045.4" transform="matrix(-1.836970e-16 1 -1 -1.836970e-16 1143.0421 1025.0621)" class="st6" width="23.4" height="77.4"/>
	<rect x="571.9" y="1045.2" class="st6" width="23.4" height="77.4"/>
	
		<rect x="571.9" y="1045.2" transform="matrix(-1.836970e-16 1 -1 -1.836970e-16 1667.5022 500.3521)" class="st6" width="23.4" height="77.4"/>
	<rect x="2147.4" y="742.1" class="st6" width="23.4" height="77.4"/>
	
		<rect x="2147.4" y="742.1" transform="matrix(-1.836970e-16 1 -1 -1.836970e-16 2939.8855 -1378.3345)" class="st6" width="23.4" height="77.4"/>
	<rect x="2672" y="742" class="st6" width="23.4" height="77.4"/>
	
		<rect x="2672" y="742" transform="matrix(-1.836970e-16 1 -1 -1.836970e-16 3464.3455 -1903.0444)" class="st6" width="23.4" height="77.4"/>
	<rect x="1098.3" y="742.1" class="st6" width="23.4" height="77.4"/>
	
		<rect x="1098.3" y="742.1" transform="matrix(-1.836970e-16 1 -1 -1.836970e-16 1890.7581 -329.2069)" class="st6" width="23.4" height="77.4"/>
	<rect x="1622.9" y="742" class="st6" width="23.4" height="77.4"/>
	
		<rect x="1622.9" y="742" transform="matrix(-1.836970e-16 1 -1 -1.836970e-16 2415.218 -853.9169)" class="st6" width="23.4" height="77.4"/>
	<rect x="47.3" y="742.1" class="st6" width="23.4" height="77.4"/>
	
		<rect x="47.3" y="742.1" transform="matrix(-1.836970e-16 1 -1 -1.836970e-16 839.7656 721.7856)" class="st6" width="23.4" height="77.4"/>
	<rect x="571.9" y="742" class="st6" width="23.4" height="77.4"/>
	
		<rect x="571.9" y="742" transform="matrix(-1.836970e-16 1 -1 -1.836970e-16 1364.2256 197.0756)" class="st6" width="23.4" height="77.4"/>
	<rect x="2147.4" y="438.8" class="st6" width="23.4" height="77.4"/>
	
		<rect x="2147.4" y="438.8" transform="matrix(-1.836970e-16 1 -1 -1.836970e-16 2636.6089 -1681.611)" class="st6" width="23.4" height="77.4"/>
	<rect x="2672" y="438.7" class="st6" width="23.4" height="77.4"/>
	
		<rect x="2672" y="438.7" transform="matrix(-1.836970e-16 1 -1 -1.836970e-16 3161.0691 -2206.321)" class="st6" width="23.4" height="77.4"/>
	<rect x="1098.3" y="438.8" class="st6" width="23.4" height="77.4"/>
	
		<rect x="1098.3" y="438.8" transform="matrix(-1.836970e-16 1 -1 -1.836970e-16 1587.4814 -632.4835)" class="st6" width="23.4" height="77.4"/>
	<rect x="1622.9" y="438.7" class="st6" width="23.4" height="77.4"/>
	
		<rect x="1622.9" y="438.7" transform="matrix(-1.836970e-16 1 -1 -1.836970e-16 2111.9414 -1157.1935)" class="st6" width="23.4" height="77.4"/>
	<rect x="47.3" y="438.8" class="st6" width="23.4" height="77.4"/>
	
		<rect x="47.3" y="438.8" transform="matrix(-1.836970e-16 1 -1 -1.836970e-16 536.489 418.509)" class="st6" width="23.4" height="77.4"/>
	<rect x="571.9" y="438.7" class="st6" width="23.4" height="77.4"/>
	
		<rect x="571.9" y="438.7" transform="matrix(-1.836970e-16 1 -1 -1.836970e-16 1060.949 -106.201)" class="st6" width="23.4" height="77.4"/>
	<rect x="2147.4" y="135.5" class="st6" width="23.4" height="77.4"/>
	
		<rect x="2147.4" y="135.5" transform="matrix(-1.836970e-16 1 -1 -1.836970e-16 2333.3325 -1984.8876)" class="st6" width="23.4" height="77.4"/>
	<rect x="2672" y="135.4" class="st6" width="23.4" height="77.4"/>
	
		<rect x="2672" y="135.4" transform="matrix(-1.836970e-16 1 -1 -1.836970e-16 2857.7925 -2509.5977)" class="st6" width="23.4" height="77.4"/>
	<rect x="1098.3" y="135.5" class="st6" width="23.4" height="77.4"/>
	
		<rect x="1098.3" y="135.5" transform="matrix(-1.836970e-16 1 -1 -1.836970e-16 1284.205 -935.7601)" class="st6" width="23.4" height="77.4"/>
	<rect x="1622.9" y="135.4" class="st6" width="23.4" height="77.4"/>
	
		<rect x="1622.9" y="135.4" transform="matrix(-1.836970e-16 1 -1 -1.836970e-16 1808.6649 -1460.4701)" class="st6" width="23.4" height="77.4"/>
	<rect x="47.3" y="135.5" class="st6" width="23.4" height="77.4"/>
	
		<rect x="47.3" y="135.5" transform="matrix(-1.836970e-16 1 -1 -1.836970e-16 233.2124 115.2324)" class="st6" width="23.4" height="77.4"/>
	<rect x="571.9" y="135.4" class="st6" width="23.4" height="77.4"/>
	
		<rect x="571.9" y="135.4" transform="matrix(-1.836970e-16 1 -1 -1.836970e-16 757.6724 -409.4776)" class="st6" width="23.4" height="77.4"/>
</g>
</svg>
