<?xml version="1.0" encoding="utf-8"?>
<!-- Generator: Adobe Illustrator 21.0.0, SVG Export Plug-In . SVG Version: 6.00 Build 0)  -->
<svg version="1.1" id="Layer_1" xmlns="http://www.w3.org/2000/svg" xmlns:xlink="http://www.w3.org/1999/xlink" x="0px" y="0px"
	 viewBox="0 0 2000 367.6" style="enable-background:new 0 0 2000 367.6;" xml:space="preserve">
<style type="text/css">
	.st0{stroke:#000000;stroke-width:5;stroke-miterlimit:10;}
	.st1{fill:#1F3A93;stroke:#1F3A93;stroke-width:5;stroke-miterlimit:10;}
</style>
<title>logo</title>
<polygon class="st0" points="396.4,365.3 202.2,28.9 7.9,365.3 0,360.8 202.2,10.5 404.4,360.8 "/>
<path class="st0" d="M572.1,367.6c-101.4,0-183.8-82.5-183.8-183.8S470.7,0,572.1,0v9.2c-96.3,0-174.6,78.3-174.6,174.6
	s78.4,174.6,174.6,174.6c94.8,0,172.1-75.9,174.6-170H572.1v-9.2h183.8v4.6C755.9,285.2,673.4,367.6,572.1,367.6z"/>
<polygon class="st0" points="367,365.3 202.2,79.9 37.4,365.3 29.5,360.8 202.2,61.6 374.9,360.8 "/>
<polygon class="st0" points="336.5,365.3 202.2,132.7 67.9,365.3 59.9,360.8 202.2,114.3 344.5,360.8 "/>
<polygon class="st0" points="302.9,365.3 202.2,190.8 101.4,365.3 93.5,360.8 202.2,172.5 310.9,360.8 "/>
<polygon class="st0" points="270.7,365.3 202.2,246.7 133.7,365.3 125.7,360.8 202.2,228.3 278.6,360.8 "/>
<polygon class="st0" points="238.5,365.3 202.2,302.5 165.9,365.3 158,360.8 202.2,284.2 246.4,360.8 "/>
<polygon class="st0" points="1136.2,365.3 942,28.9 747.7,365.3 739.8,360.8 942,10.5 1144.2,360.8 "/>
<polygon class="st0" points="1106.7,365.3 942,79.9 777.2,365.3 769.2,360.8 942,61.6 1114.7,360.8 "/>
<polygon class="st0" points="1076.3,365.3 942,132.7 807.6,365.3 799.7,360.8 942,114.3 1084.2,360.8 "/>
<polygon class="st0" points="1042.7,365.3 942,190.8 841.2,365.3 833.3,360.8 942,172.5 1050.7,360.8 "/>
<polygon class="st0" points="1010.5,365.3 942,246.7 873.4,365.3 865.5,360.8 942,228.3 1018.4,360.8 "/>
<polygon class="st0" points="978.2,365.3 942,302.5 905.7,365.3 897.7,360.8 942,284.2 986.2,360.8 "/>
<polygon class="st1" points="1789.1,365.3 1594.8,28.9 1400.6,365.3 1392.6,360.8 1594.8,10.5 1797,360.8 "/>
<polygon class="st1" points="1759.6,365.3 1594.8,79.9 1430.1,365.3 1422.1,360.8 1594.8,61.6 1767.6,360.8 "/>
<polygon class="st1" points="1729.1,365.3 1594.8,132.7 1460.5,365.3 1452.6,360.8 1594.8,114.3 1737.1,360.8 "/>
<polygon class="st1" points="1695.6,365.3 1594.8,190.8 1494.1,365.3 1486.1,360.8 1594.8,172.5 1703.5,360.8 "/>
<polygon class="st1" points="1663.3,365.3 1594.8,246.7 1526.3,365.3 1518.4,360.8 1594.8,228.3 1671.3,360.8 "/>
<polygon class="st1" points="1631.1,365.3 1594.8,302.5 1558.6,365.3 1550.6,360.8 1594.8,284.2 1639.1,360.8 "/>
<path class="st0" d="M572.1,343.7c-88.2,0-159.9-71.7-159.9-159.9S483.9,23.9,572.1,23.9v9.2c-83.1,0-150.7,67.6-150.7,150.7
	S489,334.5,572.1,334.5c81.6,0,148.2-65.1,150.6-146.1H572.1v-9.2H732v4.6C732,272,660.2,343.7,572.1,343.7z"/>
<path class="st0" d="M572.1,318c-74,0-134.2-60.2-134.2-134.2S498.1,49.6,572.1,49.6v9.2c-69,0-125,56-125,125s56,125,125,125
	c67.2,0,122.4-53.2,124.9-120.4H572.1v-9.2h134.2v4.6C706.3,257.8,646.1,318,572.1,318z"/>
<path class="st0" d="M572.1,293.9c-60.8,0-110-49.3-110-110s49.3-110,110-110V83c-55.7,0-100.9,45.1-100.9,100.9
	c0,55.7,45.1,100.9,100.9,100.9c53.9,0,98.3-42.4,100.8-96.3H572.1v-9.2h110v4.6C682,244.6,632.8,293.8,572.1,293.9z"/>
<path class="st0" d="M572.1,267.2c-46.1,0-83.4-37.3-83.4-83.4s37.3-83.4,83.4-83.4l0,0v9.2c-41,0-74.2,33.2-74.2,74.2
	s33.2,74.2,74.2,74.2c39.2,0,71.7-30.5,74.1-69.6h-74.1v-9.2h83.4v4.6C655.5,229.9,618.1,267.2,572.1,267.2z"/>
<rect x="1866.7" y="19.7" class="st1" width="9.2" height="343.3"/>
<rect x="1866.7" y="19.7" class="st1" width="9.2" height="343.3"/>
<rect x="1944" y="19.7" class="st1" width="9.2" height="343.3"/>
<rect x="1892.5" y="19.7" class="st1" width="9.2" height="343.3"/>
<rect x="1918.2" y="19.7" class="st1" width="9.2" height="343.3"/>
<rect x="1819.9" y="15.1" class="st1" width="180.1" height="9.2"/>
<rect x="1819.9" y="358.5" class="st1" width="180.1" height="9.2"/>
<path class="st0" d="M572.1,240.6c-31.3,0-56.8-25.4-56.8-56.8s25.4-56.7,56.8-56.8l0,0v9.2c-26.3,0-47.6,21.3-47.6,47.6
	s21.3,47.6,47.6,47.6c24.5,0,45-18.6,47.3-43h-47.3v-9.2h56.8v4.6C628.8,215.1,603.4,240.5,572.1,240.6z"/>
<path class="st0" d="M1226.8,242.3v9.2h9.2v-9.2H1226.8z M1316,0h-136.2v251.5h9.2V9.2h127c67.2,0,121.9,52.3,121.9,116.6
	s-54.7,116.5-121.9,116.5h-63.9v9.2h63.9c72.3,0,131.1-56.4,131.1-125.7S1388.3,0,1316,0z M1203.3,251.5h9.2v-9.2h-9.2V251.5z"/>
<path class="st0" d="M1226.8,22.1v9.2h9.2v-9.2C1236,22.1,1226.8,22.1,1226.8,22.1z M1315.5,22.1h-63.4v9.2h63.4
	c54.5,0,98.8,42.4,98.8,94.5s-44.3,94.5-98.8,94.5h-63.4v9.2h63.4c59.6,0,108-46.5,108-103.7S1375.1,22.1,1315.5,22.1z M1203.3,22.1
	v207.3h9.2V22.1H1203.3z M1226.8,220.2v9.2h9.2v-9.2H1226.8z"/>
<path class="st0" d="M1226.8,44.2v163.1h9.2V44.2H1226.8z M1315.1,44.2h-62.9v9.2h62.9c41.8,0,75.8,32.5,75.8,72.4
	s-34,72.4-75.8,72.4h-62.9v9.2h62.9c46.8,0,85-36.6,85-81.6C1400,80.8,1361.9,44.2,1315.1,44.2z"/>
<path class="st0" d="M1314.6,67.9h-62.4v115.6h62.4c33.2,0,60.1-25.9,60.1-57.8S1347.7,67.9,1314.6,67.9z M1314.6,174.4h-53.2V77.1
	h53.2c28.1,0,51,21.8,51,48.6S1342.7,174.4,1314.6,174.4z"/>
<path class="st0" d="M1312.7,92.9H1276v65.6h36.7c19.5,0,35.4-14.7,35.4-32.8S1332.2,92.9,1312.7,92.9z M1312.7,149.4h-27.5v-47.2
	h27.5c14.5,0,26.2,10.6,26.2,23.6C1338.9,138.8,1327.1,149.4,1312.7,149.4z"/>
<rect x="1179.8" y="4.6" class="st0" width="9.2" height="358.5"/>
<rect x="1203.3" y="4.6" class="st0" width="9.2" height="358.5"/>
<rect x="1226.8" y="4.6" class="st0" width="9.2" height="358.5"/>
<rect x="1252.2" y="4.6" class="st0" width="9.2" height="358.5"/>
</svg>
