<?xml version="1.0" encoding="utf-8"?>
<!-- Generator: Adobe Illustrator 21.0.0, SVG Export Plug-In . SVG Version: 6.00 Build 0)  -->
<svg version="1.1" id="Layer_1" xmlns="http://www.w3.org/2000/svg" xmlns:xlink="http://www.w3.org/1999/xlink" x="0px" y="0px"
	 viewBox="0 0 2000 600" style="enable-background:new 0 0 2000 600;" xml:space="preserve">
<style type="text/css">
	.st0{fill:#0000FE;}
</style>
<g>
	<path d="M197.9,255.3v-73.6c22.5-12.7,54.9-19.1,97.2-19.1c40.5,0,70.6,8.7,90.5,26.1c19.9,17.4,29.8,44.5,29.8,81.2v182.7H335
		v-34.9c-12,24.4-35.6,36.5-70.8,36.5c-27.7,0-49.4-7.9-64.9-23.6c-15.6-15.7-23.3-35.4-23.3-59c0-27.4,10-48.6,30.1-63.8
		c20-15.2,49.7-22.8,89.1-22.8h36v-19.7c0-24-15.9-36-47.8-36C252.6,229.5,224.1,238.1,197.9,255.3z M331.1,335.7h-26.4
		c-13.9,0-24.5,3-32,9c-7.5,6-11.2,13.7-11.2,23c0,19.1,11,28.7,33.2,28.7c11.6,0,20.6-3.6,27-10.7c6.4-7.1,9.6-16.9,9.6-29.2V335.7
		z"/>
	<path d="M662.7,167.6h81.5v257.4c0,45.7-13.7,80.1-41,103.1c-27.4,23-61.6,34.6-102.9,34.6c-40.1,0-75.1-7.1-105.1-21.4v-83.8
		c26.2,21,58.5,31.5,96.7,31.5c24.7,0,42.7-5.3,54-15.7c11.2-10.5,16.9-27,16.9-49.5v-19.1c-16.5,25.5-42.7,38.2-78.7,38.2
		c-31.5,0-58.6-11.6-81.2-34.9c-22.7-23.2-34-57.7-34-103.4c0-40.5,11-73.9,32.9-100.3c21.9-26.4,50.7-39.6,86.3-39.6
		c33.7,0,58.6,13.5,74.8,40.5V167.6z M606.5,377.9c17.6,0,31.4-6.6,41.3-20c9.9-13.3,14.9-29.3,14.9-48.1c0-51-18.5-76.4-55.6-76.4
		c-16.5,0-29.4,6.4-38.8,19.1c-9.4,12.7-14.1,30.4-14.1,52.8c0,23.6,4.5,41.6,13.5,54C576.7,371.7,589.7,377.9,606.5,377.9z"/>
	<path d="M816.8,255.3v-73.6c22.5-12.7,54.9-19.1,97.2-19.1c40.5,0,70.6,8.7,90.5,26.1c19.9,17.4,29.8,44.5,29.8,81.2v182.7h-80.4
		v-34.9c-12,24.4-35.6,36.5-70.8,36.5c-27.7,0-49.4-7.9-64.9-23.6c-15.6-15.7-23.3-35.4-23.3-59c0-27.4,10-48.6,30.1-63.8
		c20-15.2,49.7-22.8,89.1-22.8h36v-19.7c0-24-15.9-36-47.8-36C871.5,229.5,843,238.1,816.8,255.3z M950,335.7h-26.4
		c-13.9,0-24.5,3-32,9c-7.5,6-11.2,13.7-11.2,23c0,19.1,11,28.7,33.2,28.7c11.6,0,20.6-3.6,27-10.7c6.4-7.1,9.6-16.9,9.6-29.2V335.7
		z"/>
	<path d="M1181,167.6v43.8c19.9-31.5,48.5-47.2,86-47.2c36.7,0,66.2,13,88.5,39.1c22.3,26.1,33.4,61.4,33.4,106
		c0,42.4-10.8,77.4-32.3,105.1c-21.6,27.7-51.4,41.6-89.7,41.6c-38.6,0-67.3-15.2-86-45.5v147.3h-82.1V167.6H1181z M1245.1,387.4
		c18,0,32.6-6.8,43.8-20.5c11.2-13.7,16.9-32.3,16.9-55.9c0-25.9-5.7-45.4-17.1-58.7c-11.4-13.3-26-20-43.6-20
		c-17.2,0-32.2,6.6-45,19.7c-12.7,13.1-19.1,31.5-19.1,55.1c0,24.4,6,43.8,18,58.5C1211,380.1,1226.3,387.4,1245.1,387.4z"/>
	<path class="st0" d="M1450.2,255.3v-73.6c22.5-12.7,54.9-19.1,97.2-19.1c40.5,0,70.6,8.7,90.5,26.1c19.9,17.4,29.8,44.5,29.8,81.2
		v182.7h-80.4v-34.9c-12,24.4-35.6,36.5-70.8,36.5c-27.7,0-49.4-7.9-64.9-23.6c-15.6-15.7-23.3-35.4-23.3-59
		c0-27.4,10-48.6,30.1-63.8c20-15.2,49.7-22.8,89.1-22.8h36v-19.7c0-24-15.9-36-47.8-36C1505,229.5,1476.5,238.1,1450.2,255.3z
		 M1583.5,335.7H1557c-13.9,0-24.5,3-32,9c-7.5,6-11.2,13.7-11.2,23c0,19.1,11,28.7,33.2,28.7c11.6,0,20.6-3.6,27-10.7
		c6.4-7.1,9.6-16.9,9.6-29.2V335.7z"/>
	<path class="st0" d="M1742.5,118.7c-9.4-9.4-14.1-20.6-14.1-33.7c0-13.1,4.7-24.4,14.1-33.7c9.4-9.4,20.6-14.1,33.7-14.1
		c13.1,0,24.4,4.7,33.7,14.1c9.4,9.4,14.1,20.6,14.1,33.7c0,13.1-4.7,24.4-14.1,33.7c-9.4,9.4-20.6,14.1-33.7,14.1
		C1763.1,132.8,1751.9,128.1,1742.5,118.7z M1735.2,452.6v-285h82.1v285H1735.2z"/>
</g>
</svg>
