<?xml version="1.0" encoding="utf-8"?>
<!-- Generator: Adobe Illustrator 21.0.0, SVG Export Plug-In . SVG Version: 6.00 Build 0)  -->
<svg version="1.1" id="Layer_1" xmlns="http://www.w3.org/2000/svg" xmlns:xlink="http://www.w3.org/1999/xlink" x="0px" y="0px"
	 viewBox="0 0 2000 1466" style="enable-background:new 0 0 2000 1466;" xml:space="preserve">
<style type="text/css">
	.st0{fill:#009688;}
	.st1{fill:#019588;}
	.st2{fill:#029489;}
	.st3{fill:#039389;}
	.st4{fill:#04928A;}
	.st5{fill:#05928A;}
	.st6{fill:#06918B;}
	.st7{fill:#07908B;}
	.st8{fill:#088F8C;}
	.st9{fill:#098E8C;}
	.st10{fill:#0A8D8D;}
	.st11{fill:#0B8C8D;}
	.st12{fill:#0C8B8D;}
	.st13{fill:#0D8A8E;}
	.st14{fill:#0E8A8E;}
	.st15{fill:#0F898F;}
	.st16{fill:#10888F;}
	.st17{fill:#118790;}
	.st18{fill:#128690;}
	.st19{fill:#138591;}
	.st20{fill:#148491;}
	.st21{fill:#158391;}
	.st22{fill:#168392;}
	.st23{fill:#178292;}
	.st24{fill:#188193;}
	.st25{fill:#198093;}
	.st26{fill:#1A7F94;}
	.st27{fill:#1B7E94;}
	.st28{fill:#1C7D95;}
	.st29{fill:#1D7C95;}
	.st30{fill:#1E7B96;}
	.st31{fill:#1F7B96;}
	.st32{fill:#207A96;}
	.st33{fill:#217997;}
	.st34{fill:#227897;}
	.st35{fill:#237798;}
	.st36{fill:#247698;}
	.st37{fill:#257599;}
	.st38{fill:#267499;}
	.st39{fill:#27739A;}
	.st40{fill:#28739A;}
	.st41{fill:#29729B;}
	.st42{fill:#2A719B;}
	.st43{fill:#2B709B;}
	.st44{fill:#2C6F9C;}
	.st45{fill:#2D6E9C;}
	.st46{fill:#2E6D9D;}
	.st47{fill:#2F6C9D;}
	.st48{fill:#306C9E;}
	.st49{fill:#316B9E;}
	.st50{fill:#326A9F;}
	.st51{fill:#33699F;}
	.st52{fill:#33689F;}
	.st53{fill:#3467A0;}
	.st54{fill:#3566A0;}
	.st55{fill:#3665A1;}
	.st56{fill:#3764A1;}
	.st57{fill:#3864A2;}
	.st58{fill:#3963A2;}
	.st59{fill:#3A62A3;}
	.st60{fill:#3B61A3;}
	.st61{fill:#3C60A4;}
	.st62{fill:#3D5FA4;}
	.st63{fill:#3E5EA4;}
	.st64{fill:#3F5DA5;}
	.st65{fill:#405DA5;}
	.st66{fill:#415CA6;}
	.st67{fill:#425BA6;}
	.st68{fill:#435AA7;}
	.st69{fill:#4459A7;}
	.st70{fill:#4558A8;}
	.st71{fill:#4657A8;}
	.st72{fill:#4756A9;}
	.st73{fill:#4855A9;}
	.st74{fill:#4955A9;}
	.st75{fill:#4A54AA;}
	.st76{fill:#4B53AA;}
	.st77{fill:#4C52AB;}
	.st78{fill:#4D51AB;}
	.st79{fill:#4E50AC;}
	.st80{fill:#4F4FAC;}
	.st81{fill:#504EAD;}
	.st82{fill:#514DAD;}
	.st83{fill:#524DAE;}
	.st84{fill:#534CAE;}
	.st85{fill:#544BAE;}
	.st86{fill:#554AAF;}
	.st87{fill:#5649AF;}
	.st88{fill:#5748B0;}
	.st89{fill:#5847B0;}
	.st90{fill:#5946B1;}
	.st91{fill:#5A46B1;}
	.st92{fill:#5B45B2;}
	.st93{fill:#5C44B2;}
	.st94{fill:#5D43B2;}
	.st95{fill:#5E42B3;}
	.st96{fill:#5F41B3;}
	.st97{fill:#6040B4;}
	.st98{fill:#613FB4;}
	.st99{fill:#623EB5;}
	.st100{fill:#633EB5;}
	.st101{fill:#643DB6;}
	.st102{fill:#653CB6;}
	.st103{fill:#663BB7;}
	.st104{fill:#673AB7;}
</style>
<g>
	<path class="st0" d="M1619.4,1131.8l99.1,171.7h-198.3L1619.4,1131.8z M1251.8,495.1h-196.4l98.2-170.1L1251.8,495.1z M969.6,657.6
		h368l184,318.7l-184,318.7h-368l-184-318.7L969.6,657.6z M687.8,1131.8l99.1,171.7H588.7L687.8,1131.8z M1153.6,0L307.2,1466H2000
		L1153.6,0z"/>
	<path class="st1" d="M1616.5,1131.8l99.1,171.7h-198.3L1616.5,1131.8z M1248.9,495.1h-196.4l98.2-170.1L1248.9,495.1z M966.7,657.6
		h368l184,318.7l-184,318.7h-368l-184-318.7L966.7,657.6z M684.9,1131.8l99.1,171.7H585.8L684.9,1131.8z M1150.7,0L304.3,1466
		h1692.8L1150.7,0z"/>
	<path class="st2" d="M1613.5,1131.8l99.1,171.7h-198.3L1613.5,1131.8z M1245.9,495.1h-196.4l98.2-170.1L1245.9,495.1z M963.7,657.6
		h368l184,318.7l-184,318.7h-368l-184-318.7L963.7,657.6z M681.9,1131.8l99.1,171.7H582.8L681.9,1131.8z M1147.7,0L301.3,1466
		h1692.8L1147.7,0z"/>
	<path class="st3" d="M1610.6,1131.8l99.1,171.7h-198.3L1610.6,1131.8z M1243,495.1h-196.4l98.2-170.1L1243,495.1z M960.8,657.6h368
		l184,318.7l-184,318.7h-368l-184-318.7L960.8,657.6z M679,1131.8l99.1,171.7H579.9L679,1131.8z M1144.8,0L298.4,1466h1692.8
		L1144.8,0z"/>
	<path class="st4" d="M1607.7,1131.8l99.1,171.7h-198.3L1607.7,1131.8z M1240.1,495.1h-196.4l98.2-170.1L1240.1,495.1z M957.9,657.6
		h368l184,318.7l-184,318.7h-368l-184-318.7L957.9,657.6z M676.1,1131.8l99.1,171.7H577L676.1,1131.8z M1141.9,0L295.5,1466h1692.8
		L1141.9,0z"/>
	<path class="st5" d="M1604.7,1131.8l99.1,171.7h-198.3L1604.7,1131.8z M1237.1,495.1h-196.4l98.2-170.1L1237.1,495.1z M954.9,657.6
		h368l184,318.7l-184,318.7h-368l-184-318.7L954.9,657.6z M673.1,1131.8l99.1,171.7H574L673.1,1131.8z M1138.9,0L292.5,1466h1692.8
		L1138.9,0z"/>
	<path class="st6" d="M1601.8,1131.8l99.1,171.7h-198.3L1601.8,1131.8z M1234.2,495.1h-196.4L1136,325L1234.2,495.1z M952,657.6h368
		l184,318.7L1320,1295H952L768,976.3L952,657.6z M670.2,1131.8l99.1,171.7H571.1L670.2,1131.8z M1136,0L289.6,1466h1692.8L1136,0z"
		/>
	<path class="st7" d="M1598.8,1131.8l99.1,171.7h-198.3L1598.8,1131.8z M1231.2,495.1h-196.4L1133,325L1231.2,495.1z M949,657.6h368
		l184,318.7L1317,1295H949L765,976.3L949,657.6z M667.2,1131.8l99.1,171.7H568.1L667.2,1131.8z M1133,0L286.6,1466h1692.8L1133,0z"
		/>
	<path class="st8" d="M1595.9,1131.8l99.1,171.7h-198.3L1595.9,1131.8z M1228.3,495.1h-196.4l98.2-170.1L1228.3,495.1z M946.1,657.6
		h368l184,318.7l-184,318.7h-368l-184-318.7L946.1,657.6z M664.3,1131.8l99.1,171.7H565.2L664.3,1131.8z M1130.1,0L283.7,1466
		h1692.8L1130.1,0z"/>
	<path class="st9" d="M1593,1131.8l99.1,171.7h-198.3L1593,1131.8z M1225.4,495.1H1029l98.2-170.1L1225.4,495.1z M943.2,657.6h368
		l184,318.7l-184,318.7h-368l-184-318.7L943.2,657.6z M661.4,1131.8l99.1,171.7H562.3L661.4,1131.8z M1127.2,0L280.8,1466h1692.8
		L1127.2,0z"/>
	<path class="st10" d="M1590,1131.8l99.1,171.7h-198.3L1590,1131.8z M1222.4,495.1H1026l98.2-170.1L1222.4,495.1z M940.2,657.6h368
		l184,318.7l-184,318.7h-368l-184-318.7L940.2,657.6z M658.4,1131.8l99.1,171.7H559.3L658.4,1131.8z M1124.2,0L277.8,1466h1692.8
		L1124.2,0z"/>
	<path class="st11" d="M1587.1,1131.8l99.1,171.7h-198.3L1587.1,1131.8z M1219.5,495.1h-196.4l98.2-170.1L1219.5,495.1z
		 M937.3,657.6h368l184,318.7l-184,318.7h-368l-184-318.7L937.3,657.6z M655.5,1131.8l99.1,171.7H556.4L655.5,1131.8z M1121.3,0
		L274.9,1466h1692.8L1121.3,0z"/>
	<path class="st12" d="M1584.2,1131.8l99.1,171.7H1485L1584.2,1131.8z M1216.6,495.1h-196.4l98.2-170.1L1216.6,495.1z M934.4,657.6
		h368l184,318.7l-184,318.7h-368l-184-318.7L934.4,657.6z M652.6,1131.8l99.1,171.7H553.5L652.6,1131.8z M1118.4,0L272,1466h1692.8
		L1118.4,0z"/>
	<path class="st13" d="M1581.2,1131.8l99.1,171.7H1482L1581.2,1131.8z M1213.6,495.1h-196.4l98.2-170.1L1213.6,495.1z M931.4,657.6
		h368l184,318.7l-184,318.7h-368l-184-318.7L931.4,657.6z M649.6,1131.8l99.1,171.7H550.5L649.6,1131.8z M1115.4,0L269,1466h1692.8
		L1115.4,0z"/>
	<path class="st14" d="M1578.3,1131.8l99.1,171.7h-198.3L1578.3,1131.8z M1210.7,495.1h-196.4l98.2-170.1L1210.7,495.1z
		 M928.5,657.6h368l184,318.7l-184,318.7h-368l-184-318.7L928.5,657.6z M646.7,1131.8l99.1,171.7H547.6L646.7,1131.8z M1112.5,0
		L266.1,1466h1692.8L1112.5,0z"/>
	<path class="st15" d="M1575.4,1131.8l99.1,171.7h-198.3L1575.4,1131.8z M1207.8,495.1h-196.4l98.2-170.1L1207.8,495.1z
		 M925.6,657.6h368l184,318.7l-184,318.7h-368l-184-318.7L925.6,657.6z M643.8,1131.8l99.1,171.7H544.7L643.8,1131.8z M1109.6,0
		L263.2,1466H1956L1109.6,0z"/>
	<path class="st16" d="M1572.4,1131.8l99.1,171.7h-198.3L1572.4,1131.8z M1204.8,495.1h-196.4l98.2-170.1L1204.8,495.1z
		 M922.6,657.6h368l184,318.7l-184,318.7h-368l-184-318.7L922.6,657.6z M640.8,1131.8l99.1,171.7H541.7L640.8,1131.8z M1106.6,0
		L260.2,1466H1953L1106.6,0z"/>
	<path class="st17" d="M1569.5,1131.8l99.1,171.7h-198.3L1569.5,1131.8z M1201.9,495.1h-196.4l98.2-170.1L1201.9,495.1z
		 M919.7,657.6h368l184,318.7l-184,318.7h-368l-184-318.7L919.7,657.6z M637.9,1131.8l99.1,171.7H538.8L637.9,1131.8z M1103.7,0
		L257.3,1466h1692.8L1103.7,0z"/>
	<path class="st18" d="M1566.5,1131.8l99.1,171.7h-198.3L1566.5,1131.8z M1198.9,495.1h-196.4l98.2-170.1L1198.9,495.1z
		 M916.7,657.6h368l184,318.7l-184,318.7h-368l-184-318.7L916.7,657.6z M634.9,1131.8l99.1,171.7H535.8L634.9,1131.8z M1100.7,0
		L254.3,1466h1692.8L1100.7,0z"/>
	<path class="st19" d="M1563.6,1131.8l99.1,171.7h-198.3L1563.6,1131.8z M1196,495.1H999.6l98.2-170.1L1196,495.1z M913.8,657.6h368
		l184,318.7l-184,318.7h-368l-184-318.7L913.8,657.6z M632,1131.8l99.1,171.7H532.9L632,1131.8z M1097.8,0L251.4,1466h1692.8
		L1097.8,0z"/>
	<path class="st20" d="M1560.7,1131.8l99.1,171.7h-198.3L1560.7,1131.8z M1193.1,495.1H996.7l98.2-170.1L1193.1,495.1z M910.9,657.6
		h368l184,318.7l-184,318.7h-368l-184-318.7L910.9,657.6z M629.1,1131.8l99.1,171.7H530L629.1,1131.8z M1094.9,0L248.5,1466h1692.8
		L1094.9,0z"/>
	<path class="st21" d="M1557.7,1131.8l99.1,171.7h-198.3L1557.7,1131.8z M1190.1,495.1H993.7l98.2-170.1L1190.1,495.1z M907.9,657.6
		h368l184,318.7l-184,318.7h-368l-184-318.7L907.9,657.6z M626.1,1131.8l99.1,171.7H527L626.1,1131.8z M1091.9,0L245.5,1466h1692.8
		L1091.9,0z"/>
	<path class="st22" d="M1554.8,1131.8l99.1,171.7h-198.3L1554.8,1131.8z M1187.2,495.1H990.8L1089,325L1187.2,495.1z M905,657.6h368
		l184,318.7L1273,1295H905L721,976.3L905,657.6z M623.2,1131.8l99.1,171.7H524.1L623.2,1131.8z M1089,0L242.6,1466h1692.8L1089,0z"
		/>
	<path class="st23" d="M1551.9,1131.8l99.1,171.7h-198.3L1551.9,1131.8z M1184.3,495.1H987.9l98.2-170.1L1184.3,495.1z M902.1,657.6
		h368l184,318.7l-184,318.7h-368l-184-318.7L902.1,657.6z M620.3,1131.8l99.1,171.7H521.2L620.3,1131.8z M1086.1,0L239.7,1466
		h1692.8L1086.1,0z"/>
	<path class="st24" d="M1548.9,1131.8l99.1,171.7h-198.3L1548.9,1131.8z M1181.3,495.1H984.9l98.2-170.1L1181.3,495.1z M899.1,657.6
		h368l184,318.7l-184,318.7h-368l-184-318.7L899.1,657.6z M617.3,1131.8l99.1,171.7H518.2L617.3,1131.8z M1083.1,0L236.7,1466
		h1692.8L1083.1,0z"/>
	<path class="st25" d="M1546,1131.8l99.1,171.7h-198.3L1546,1131.8z M1178.4,495.1H982l98.2-170.1L1178.4,495.1z M896.2,657.6h368
		l184,318.7l-184,318.7h-368l-184-318.7L896.2,657.6z M614.4,1131.8l99.1,171.7H515.3L614.4,1131.8z M1080.2,0L233.8,1466h1692.8
		L1080.2,0z"/>
	<path class="st26" d="M1543,1131.8l99.1,171.7h-198.3L1543,1131.8z M1175.4,495.1H979l98.2-170.1L1175.4,495.1z M893.3,657.6h368
		l184,318.7l-184,318.7h-368l-184-318.7L893.3,657.6z M611.5,1131.8l99.1,171.7H512.3L611.5,1131.8z M1077.3,0L230.8,1466h1692.8
		L1077.3,0z"/>
	<path class="st27" d="M1540.1,1131.8l99.1,171.7h-198.3L1540.1,1131.8z M1172.5,495.1H976.1l98.2-170.1L1172.5,495.1z M890.3,657.6
		h368l184,318.7l-184,318.7h-368l-184-318.7L890.3,657.6z M608.5,1131.8l99.1,171.7H509.4L608.5,1131.8z M1074.3,0L227.9,1466
		h1692.8L1074.3,0z"/>
	<path class="st28" d="M1537.2,1131.8l99.1,171.7H1438L1537.2,1131.8z M1169.6,495.1H973.2l98.2-170.1L1169.6,495.1z M887.4,657.6
		h368l184,318.7l-184,318.7h-368l-184-318.7L887.4,657.6z M605.6,1131.8l99.1,171.7H506.5L605.6,1131.8z M1071.4,0L225,1466h1692.8
		L1071.4,0z"/>
	<path class="st29" d="M1534.2,1131.8l99.1,171.7H1435L1534.2,1131.8z M1166.6,495.1H970.2l98.2-170.1L1166.6,495.1z M884.4,657.6
		h368l184,318.7l-184,318.7h-368l-184-318.7L884.4,657.6z M602.6,1131.8l99.1,171.7H503.5L602.6,1131.8z M1068.4,0L222,1466h1692.8
		L1068.4,0z"/>
	<path class="st30" d="M1531.3,1131.8l99.1,171.7h-198.3L1531.3,1131.8z M1163.7,495.1H967.3l98.2-170.1L1163.7,495.1z M881.5,657.6
		h368l184,318.7l-184,318.7h-368l-184-318.7L881.5,657.6z M599.7,1131.8l99.1,171.7H500.6L599.7,1131.8z M1065.5,0L219.1,1466
		h1692.8L1065.5,0z"/>
	<path class="st31" d="M1528.4,1131.8l99.1,171.7h-198.3L1528.4,1131.8z M1160.8,495.1H964.4l98.2-170.1L1160.8,495.1z M878.6,657.6
		h368l184,318.7l-184,318.7h-368l-184-318.7L878.6,657.6z M596.8,1131.8l99.1,171.7H497.7L596.8,1131.8z M1062.6,0L216.2,1466H1909
		L1062.6,0z"/>
	<path class="st32" d="M1525.4,1131.8l99.1,171.7h-198.3L1525.4,1131.8z M1157.8,495.1H961.4l98.2-170.1L1157.8,495.1z M875.6,657.6
		h368l184,318.7l-184,318.7h-368l-184-318.7L875.6,657.6z M593.8,1131.8l99.1,171.7H494.7L593.8,1131.8z M1059.6,0L213.2,1466H1906
		L1059.6,0z"/>
	<path class="st33" d="M1522.5,1131.8l99.1,171.7h-198.3L1522.5,1131.8z M1154.9,495.1H958.5l98.2-170.1L1154.9,495.1z M872.7,657.6
		h368l184,318.7l-184,318.7h-368l-184-318.7L872.7,657.6z M590.9,1131.8l99.1,171.7H491.8L590.9,1131.8z M1056.7,0L210.3,1466
		h1692.8L1056.7,0z"/>
	<path class="st34" d="M1519.6,1131.8l99.1,171.7h-198.3L1519.6,1131.8z M1152,495.1H955.6l98.2-170.1L1152,495.1z M869.8,657.6h368
		l184,318.7l-184,318.7h-368l-184-318.7L869.8,657.6z M588,1131.8l99.1,171.7H488.9L588,1131.8z M1053.8,0L207.4,1466h1692.8
		L1053.8,0z"/>
	<path class="st35" d="M1516.6,1131.8l99.1,171.7h-198.3L1516.6,1131.8z M1149,495.1H952.6l98.2-170.1L1149,495.1z M866.8,657.6h368
		l184,318.7l-184,318.7h-368l-184-318.7L866.8,657.6z M585,1131.8l99.1,171.7H485.9L585,1131.8z M1050.8,0L204.4,1466h1692.8
		L1050.8,0z"/>
	<path class="st36" d="M1513.7,1131.8l99.1,171.7h-198.3L1513.7,1131.8z M1146.1,495.1H949.7l98.2-170.1L1146.1,495.1z M863.9,657.6
		h368l184,318.7l-184,318.7h-368l-184-318.7L863.9,657.6z M582.1,1131.8l99.1,171.7H483L582.1,1131.8z M1047.9,0L201.5,1466h1692.8
		L1047.9,0z"/>
	<path class="st37" d="M1510.7,1131.8l99.1,171.7h-198.3L1510.7,1131.8z M1143.1,495.1H946.7l98.2-170.1L1143.1,495.1z M860.9,657.6
		h368l184,318.7l-184,318.7h-368l-184-318.7L860.9,657.6z M579.1,1131.8l99.1,171.7H480L579.1,1131.8z M1044.9,0L198.5,1466h1692.8
		L1044.9,0z"/>
	<path class="st38" d="M1507.8,1131.8l99.1,171.7h-198.3L1507.8,1131.8z M1140.2,495.1H943.8L1042,325L1140.2,495.1z M858,657.6h368
		l184,318.7L1226,1295H858L674,976.3L858,657.6z M576.2,1131.8l99.1,171.7H477.1L576.2,1131.8z M1042,0L195.6,1466h1692.8L1042,0z"
		/>
	<path class="st39" d="M1504.9,1131.8l99.1,171.7h-198.3L1504.9,1131.8z M1137.3,495.1H940.9l98.2-170.1L1137.3,495.1z M855.1,657.6
		h368l184,318.7l-184,318.7h-368l-184-318.7L855.1,657.6z M573.3,1131.8l99.1,171.7H474.2L573.3,1131.8z M1039.1,0L192.7,1466
		h1692.8L1039.1,0z"/>
	<path class="st40" d="M1501.9,1131.8l99.1,171.7h-198.3L1501.9,1131.8z M1134.3,495.1H937.9l98.2-170.1L1134.3,495.1z M852.1,657.6
		h368l184,318.7l-184,318.7h-368l-184-318.7L852.1,657.6z M570.3,1131.8l99.1,171.7H471.2L570.3,1131.8z M1036.1,0L189.7,1466
		h1692.8L1036.1,0z"/>
	<path class="st41" d="M1499,1131.8l99.1,171.7h-198.3L1499,1131.8z M1131.4,495.1H935l98.2-170.1L1131.4,495.1z M849.2,657.6h368
		l184,318.7l-184,318.7h-368l-184-318.7L849.2,657.6z M567.4,1131.8l99.1,171.7H468.3L567.4,1131.8z M1033.2,0L186.8,1466h1692.8
		L1033.2,0z"/>
	<path class="st42" d="M1496.1,1131.8l99.1,171.7h-198.3L1496.1,1131.8z M1128.5,495.1H932.1l98.2-170.1L1128.5,495.1z M846.3,657.6
		h368l184,318.7l-184,318.7h-368l-184-318.7L846.3,657.6z M564.5,1131.8l99.1,171.7H465.4L564.5,1131.8z M1030.3,0L183.9,1466
		h1692.8L1030.3,0z"/>
	<path class="st43" d="M1493.1,1131.8l99.1,171.7h-198.3L1493.1,1131.8z M1125.5,495.1H929.1l98.2-170.1L1125.5,495.1z M843.3,657.6
		h368l184,318.7l-184,318.7h-368l-184-318.7L843.3,657.6z M561.5,1131.8l99.1,171.7H462.4L561.5,1131.8z M1027.3,0L180.9,1466
		h1692.8L1027.3,0z"/>
	<path class="st44" d="M1490.2,1131.8l99.1,171.7H1391L1490.2,1131.8z M1122.6,495.1H926.2l98.2-170.1L1122.6,495.1z M840.4,657.6
		h368l184,318.7l-184,318.7h-368l-184-318.7L840.4,657.6z M558.6,1131.8l99.1,171.7H459.5L558.6,1131.8z M1024.4,0L178,1466h1692.8
		L1024.4,0z"/>
	<path class="st45" d="M1487.3,1131.8l99.1,171.7h-198.3L1487.3,1131.8z M1119.7,495.1H923.3l98.2-170.1L1119.7,495.1z M837.5,657.6
		h368l184,318.7l-184,318.7h-368l-184-318.7L837.5,657.6z M555.7,1131.8l99.1,171.7H456.6L555.7,1131.8z M1021.5,0L175.1,1466
		h1692.8L1021.5,0z"/>
	<path class="st46" d="M1484.3,1131.8l99.1,171.7h-198.3L1484.3,1131.8z M1116.7,495.1H920.3l98.2-170.1L1116.7,495.1z M834.5,657.6
		h368l184,318.7l-184,318.7h-368l-184-318.7L834.5,657.6z M552.7,1131.8l99.1,171.7H453.6L552.7,1131.8z M1018.5,0L172.1,1466
		h1692.8L1018.5,0z"/>
	<path class="st47" d="M1481.4,1131.8l99.1,171.7h-198.3L1481.4,1131.8z M1113.8,495.1H917.4l98.2-170.1L1113.8,495.1z M831.6,657.6
		h368l184,318.7l-184,318.7h-368l-184-318.7L831.6,657.6z M549.8,1131.8l99.1,171.7H450.7L549.8,1131.8z M1015.6,0L169.2,1466H1862
		L1015.6,0z"/>
	<path class="st48" d="M1478.4,1131.8l99.1,171.7h-198.3L1478.4,1131.8z M1110.8,495.1H914.4l98.2-170.1L1110.8,495.1z M828.6,657.6
		h368l184,318.7l-184,318.7h-368l-184-318.7L828.6,657.6z M546.8,1131.8l99.1,171.7H447.7L546.8,1131.8z M1012.6,0L166.2,1466H1859
		L1012.6,0z"/>
	<path class="st49" d="M1475.5,1131.8l99.1,171.7h-198.3L1475.5,1131.8z M1107.9,495.1H911.5l98.2-170.1L1107.9,495.1z M825.7,657.6
		h368l184,318.7l-184,318.7h-368l-184-318.7L825.7,657.6z M543.9,1131.8l99.1,171.7H444.8L543.9,1131.8z M1009.7,0L163.3,1466
		h1692.8L1009.7,0z"/>
	<path class="st50" d="M1472.6,1131.8l99.1,171.7h-198.3L1472.6,1131.8z M1105,495.1H908.6l98.2-170.1L1105,495.1z M822.8,657.6h368
		l184,318.7l-184,318.7h-368l-184-318.7L822.8,657.6z M541,1131.8l99.1,171.7H441.9L541,1131.8z M1006.8,0L160.4,1466h1692.8
		L1006.8,0z"/>
	<path class="st51" d="M1469.6,1131.8l99.1,171.7h-198.3L1469.6,1131.8z M1102,495.1H905.6l98.2-170.1L1102,495.1z M819.8,657.6h368
		l184,318.7l-184,318.7h-368l-184-318.7L819.8,657.6z M538,1131.8l99.1,171.7H438.9L538,1131.8z M1003.8,0L157.4,1466h1692.8
		L1003.8,0z"/>
	<path class="st52" d="M1466.7,1131.8l99.1,171.7h-198.3L1466.7,1131.8z M1099.1,495.1H902.7l98.2-170.1L1099.1,495.1z M816.9,657.6
		h368l184,318.7l-184,318.7h-368l-184-318.7L816.9,657.6z M535.1,1131.8l99.1,171.7H436L535.1,1131.8z M1000.9,0L154.5,1466h1692.8
		L1000.9,0z"/>
	<path class="st53" d="M1463.8,1131.8l99.1,171.7h-198.3L1463.8,1131.8z M1096.2,495.1H899.8L998,325L1096.2,495.1z M814,657.6h368
		l184,318.7L1182,1295H814L630,976.3L814,657.6z M532.2,1131.8l99.1,171.7H433.1L532.2,1131.8z M998,0L151.6,1466h1692.8L998,0z"/>
	<path class="st54" d="M1460.8,1131.8l99.1,171.7h-198.3L1460.8,1131.8z M1093.2,495.1H896.8L995,325L1093.2,495.1z M811,657.6h368
		l184,318.7L1179,1295H811L627,976.3L811,657.6z M529.2,1131.8l99.1,171.7H430.1L529.2,1131.8z M995,0L148.6,1466h1692.8L995,0z"/>
	<path class="st55" d="M1457.9,1131.8l99.1,171.7h-198.3L1457.9,1131.8z M1090.3,495.1H893.9L992.1,325L1090.3,495.1z M808.1,657.6
		h368l184,318.7l-184,318.7h-368l-184-318.7L808.1,657.6z M526.3,1131.8l99.1,171.7H427.2L526.3,1131.8z M992.1,0L145.7,1466h1692.8
		L992.1,0z"/>
	<path class="st56" d="M1455,1131.8l99.1,171.7h-198.3L1455,1131.8z M1087.4,495.1H891L989.2,325L1087.4,495.1z M805.2,657.6h368
		l184,318.7l-184,318.7h-368l-184-318.7L805.2,657.6z M523.4,1131.8l99.1,171.7H424.3L523.4,1131.8z M989.2,0L142.8,1466h1692.8
		L989.2,0z"/>
	<path class="st57" d="M1452,1131.8l99.1,171.7h-198.3L1452,1131.8z M1084.4,495.1H888L986.2,325L1084.4,495.1z M802.2,657.6h368
		l184,318.7l-184,318.7h-368l-184-318.7L802.2,657.6z M520.4,1131.8l99.1,171.7H421.3L520.4,1131.8z M986.2,0L139.8,1466h1692.8
		L986.2,0z"/>
	<path class="st58" d="M1449.1,1131.8l99.1,171.7h-198.3L1449.1,1131.8z M1081.5,495.1H885.1L983.3,325L1081.5,495.1z M799.3,657.6
		h368l184,318.7l-184,318.7h-368l-184-318.7L799.3,657.6z M517.5,1131.8l99.1,171.7H418.4L517.5,1131.8z M983.3,0L136.9,1466h1692.8
		L983.3,0z"/>
	<path class="st59" d="M1446.1,1131.8l99.1,171.7h-198.3L1446.1,1131.8z M1078.5,495.1H882.1L980.3,325L1078.5,495.1z M796.3,657.6
		h368l184,318.7l-184,318.7h-368l-184-318.7L796.3,657.6z M514.5,1131.8l99.1,171.7H415.4L514.5,1131.8z M980.3,0L133.9,1466h1692.8
		L980.3,0z"/>
	<path class="st60" d="M1443.2,1131.8l99.1,171.7H1344L1443.2,1131.8z M1075.6,495.1H879.2L977.4,325L1075.6,495.1z M793.4,657.6
		h368l184,318.7l-184,318.7h-368l-184-318.7L793.4,657.6z M511.6,1131.8l99.1,171.7H412.5L511.6,1131.8z M977.4,0L131,1466h1692.8
		L977.4,0z"/>
	<path class="st61" d="M1440.3,1131.8l99.1,171.7h-198.3L1440.3,1131.8z M1072.7,495.1H876.3L974.5,325L1072.7,495.1z M790.5,657.6
		h368l184,318.7l-184,318.7h-368l-184-318.7L790.5,657.6z M508.7,1131.8l99.1,171.7H409.6L508.7,1131.8z M974.5,0L128.1,1466h1692.8
		L974.5,0z"/>
	<path class="st62" d="M1437.3,1131.8l99.1,171.7h-198.3L1437.3,1131.8z M1069.7,495.1H873.3L971.5,325L1069.7,495.1z M787.5,657.6
		h368l184,318.7l-184,318.7h-368l-184-318.7L787.5,657.6z M505.7,1131.8l99.1,171.7H406.6L505.7,1131.8z M971.5,0L125.1,1466h1692.8
		L971.5,0z"/>
	<path class="st63" d="M1434.4,1131.8l99.1,171.7h-198.3L1434.4,1131.8z M1066.8,495.1H870.4L968.6,325L1066.8,495.1z M784.6,657.6
		h368l184,318.7l-184,318.7h-368l-184-318.7L784.6,657.6z M502.8,1131.8l99.1,171.7H403.7L502.8,1131.8z M968.6,0L122.2,1466H1815
		L968.6,0z"/>
	<path class="st64" d="M1431.5,1131.8l99.1,171.7h-198.3L1431.5,1131.8z M1063.9,495.1H867.5L965.7,325L1063.9,495.1z M781.7,657.6
		h368l184,318.7l-184,318.7h-368l-184-318.7L781.7,657.6z M499.9,1131.8l99.1,171.7H400.8L499.9,1131.8z M965.7,0L119.3,1466h1692.8
		L965.7,0z"/>
	<path class="st65" d="M1428.5,1131.8l99.1,171.7h-198.3L1428.5,1131.8z M1060.9,495.1H864.5L962.7,325L1060.9,495.1z M778.7,657.6
		h368l184,318.7l-184,318.7h-368l-184-318.7L778.7,657.6z M496.9,1131.8l99.1,171.7H397.8L496.9,1131.8z M962.7,0L116.3,1466h1692.8
		L962.7,0z"/>
	<path class="st66" d="M1425.6,1131.8l99.1,171.7h-198.3L1425.6,1131.8z M1058,495.1H861.6L959.8,325L1058,495.1z M775.8,657.6h368
		l184,318.7l-184,318.7h-368l-184-318.7L775.8,657.6z M494,1131.8l99.1,171.7H394.9L494,1131.8z M959.8,0L113.4,1466h1692.8L959.8,0
		z"/>
	<path class="st67" d="M1422.7,1131.8l99.1,171.7h-198.3L1422.7,1131.8z M1055.1,495.1H858.7L956.9,325L1055.1,495.1z M772.9,657.6
		h368l184,318.7l-184,318.7h-368l-184-318.7L772.9,657.6z M491.1,1131.8l99.1,171.7H392L491.1,1131.8z M956.9,0L110.5,1466h1692.8
		L956.9,0z"/>
	<path class="st68" d="M1419.7,1131.8l99.1,171.7h-198.3L1419.7,1131.8z M1052.1,495.1H855.7L953.9,325L1052.1,495.1z M769.9,657.6
		h368l184,318.7l-184,318.7h-368l-184-318.7L769.9,657.6z M488.1,1131.8l99.1,171.7H389L488.1,1131.8z M953.9,0L107.5,1466h1692.8
		L953.9,0z"/>
	<path class="st69" d="M1416.8,1131.8l99.1,171.7h-198.3L1416.8,1131.8z M1049.2,495.1H852.8L951,325L1049.2,495.1z M767,657.6h368
		l184,318.7L1135,1295H767L583,976.3L767,657.6z M485.2,1131.8l99.1,171.7H386.1L485.2,1131.8z M951,0L104.6,1466h1692.8L951,0z"/>
	<path class="st70" d="M1413.8,1131.8l99.1,171.7h-198.3L1413.8,1131.8z M1046.2,495.1H849.8L948,325L1046.2,495.1z M764,657.6h368
		l184,318.7L1132,1295H764L580,976.3L764,657.6z M482.2,1131.8l99.1,171.7H383.1L482.2,1131.8z M948,0L101.6,1466h1692.8L948,0z"/>
	<path class="st71" d="M1410.9,1131.8l99.1,171.7h-198.3L1410.9,1131.8z M1043.3,495.1H846.9L945.1,325L1043.3,495.1z M761.1,657.6
		h368l184,318.7l-184,318.7h-368l-184-318.7L761.1,657.6z M479.3,1131.8l99.1,171.7H380.2L479.3,1131.8z M945.1,0L98.7,1466h1692.8
		L945.1,0z"/>
	<path class="st72" d="M1408,1131.8l99.1,171.7h-198.3L1408,1131.8z M1040.4,495.1H844L942.2,325L1040.4,495.1z M758.2,657.6h368
		l184,318.7l-184,318.7h-368l-184-318.7L758.2,657.6z M476.4,1131.8l99.1,171.7H377.3L476.4,1131.8z M942.2,0L95.8,1466h1692.8
		L942.2,0z"/>
	<path class="st73" d="M1405,1131.8l99.1,171.7h-198.3L1405,1131.8z M1037.4,495.1H841L939.2,325L1037.4,495.1z M755.2,657.6h368
		l184,318.7l-184,318.7h-368l-184-318.7L755.2,657.6z M473.4,1131.8l99.1,171.7H374.3L473.4,1131.8z M939.2,0L92.8,1466h1692.8
		L939.2,0z"/>
	<path class="st74" d="M1402.1,1131.8l99.1,171.7h-198.3L1402.1,1131.8z M1034.5,495.1H838.1L936.3,325L1034.5,495.1z M752.3,657.6
		h368l184,318.7l-184,318.7h-368l-184-318.7L752.3,657.6z M470.5,1131.8l99.1,171.7H371.4L470.5,1131.8z M936.3,0L89.9,1466h1692.8
		L936.3,0z"/>
	<path class="st75" d="M1399.2,1131.8l99.1,171.7H1300L1399.2,1131.8z M1031.6,495.1H835.2L933.4,325L1031.6,495.1z M749.4,657.6
		h368l184,318.7l-184,318.7h-368l-184-318.7L749.4,657.6z M467.6,1131.8l99.1,171.7H368.5L467.6,1131.8z M933.4,0L87,1466h1692.8
		L933.4,0z"/>
	<path class="st76" d="M1396.2,1131.8l99.1,171.7H1297L1396.2,1131.8z M1028.6,495.1H832.2L930.4,325L1028.6,495.1z M746.4,657.6
		h368l184,318.7l-184,318.7h-368l-184-318.7L746.4,657.6z M464.6,1131.8l99.1,171.7H365.5L464.6,1131.8z M930.4,0L84,1466h1692.8
		L930.4,0z"/>
	<path class="st77" d="M1393.3,1131.8l99.1,171.7h-198.3L1393.3,1131.8z M1025.7,495.1H829.3L927.5,325L1025.7,495.1z M743.5,657.6
		h368l184,318.7l-184,318.7h-368l-184-318.7L743.5,657.6z M461.7,1131.8l99.1,171.7H362.6L461.7,1131.8z M927.5,0L81.1,1466h1692.8
		L927.5,0z"/>
	<path class="st78" d="M1390.3,1131.8l99.1,171.7h-198.3L1390.3,1131.8z M1022.8,495.1H826.4L924.6,325L1022.8,495.1z M740.6,657.6
		h368l184,318.7l-184,318.7h-368l-184-318.7L740.6,657.6z M458.8,1131.8l99.1,171.7H359.7L458.8,1131.8z M924.6,0L78.2,1466H1771
		L924.6,0z"/>
	<path class="st79" d="M1387.4,1131.8l99.1,171.7h-198.3L1387.4,1131.8z M1019.8,495.1H823.4L921.6,325L1019.8,495.1z M737.6,657.6
		h368l184,318.7l-184,318.7h-368l-184-318.7L737.6,657.6z M455.8,1131.8l99.1,171.7H356.7L455.8,1131.8z M921.6,0L75.2,1466H1768
		L921.6,0z"/>
	<path class="st80" d="M1384.5,1131.8l99.1,171.7h-198.3L1384.5,1131.8z M1016.9,495.1H820.5L918.7,325L1016.9,495.1z M734.7,657.6
		h368l184,318.7l-184,318.7h-368l-184-318.7L734.7,657.6z M452.9,1131.8l99.1,171.7H353.8L452.9,1131.8z M918.7,0L72.3,1466h1692.8
		L918.7,0z"/>
	<path class="st81" d="M1381.5,1131.8l99.1,171.7h-198.3L1381.5,1131.8z M1013.9,495.1H817.5L915.7,325L1013.9,495.1z M731.7,657.6
		h368l184,318.7l-184,318.7h-368l-184-318.7L731.7,657.6z M449.9,1131.8l99.1,171.7H350.8L449.9,1131.8z M915.7,0L69.3,1466h1692.8
		L915.7,0z"/>
	<path class="st82" d="M1378.6,1131.8l99.1,171.7h-198.3L1378.6,1131.8z M1011,495.1H814.6L912.8,325L1011,495.1z M728.8,657.6h368
		l184,318.7l-184,318.7h-368l-184-318.7L728.8,657.6z M447,1131.8l99.1,171.7H347.9L447,1131.8z M912.8,0L66.4,1466h1692.8L912.8,0z
		"/>
	<path class="st83" d="M1375.7,1131.8l99.1,171.7h-198.3L1375.7,1131.8z M1008.1,495.1H811.7L909.9,325L1008.1,495.1z M725.9,657.6
		h368l184,318.7l-184,318.7h-368l-184-318.7L725.9,657.6z M444.1,1131.8l99.1,171.7H345L444.1,1131.8z M909.9,0L63.5,1466h1692.8
		L909.9,0z"/>
	<path class="st84" d="M1372.7,1131.8l99.1,171.7h-198.3L1372.7,1131.8z M1005.1,495.1H808.7L906.9,325L1005.1,495.1z M722.9,657.6
		h368l184,318.7l-184,318.7h-368l-184-318.7L722.9,657.6z M441.1,1131.8l99.1,171.7H342L441.1,1131.8z M906.9,0L60.5,1466h1692.8
		L906.9,0z"/>
	<path class="st85" d="M1369.8,1131.8l99.1,171.7h-198.3L1369.8,1131.8z M1002.2,495.1H805.8L904,325L1002.2,495.1z M720,657.6h368
		l184,318.7L1088,1295H720L536,976.3L720,657.6z M438.2,1131.8l99.1,171.7H339.1L438.2,1131.8z M904,0L57.6,1466h1692.8L904,0z"/>
	<path class="st86" d="M1366.9,1131.8l99.1,171.7h-198.3L1366.9,1131.8z M999.3,495.1H802.9L901.1,325L999.3,495.1z M717.1,657.6
		h368l184,318.7l-184,318.7h-368l-184-318.7L717.1,657.6z M435.3,1131.8l99.1,171.7H336.2L435.3,1131.8z M901.1,0L54.7,1466h1692.8
		L901.1,0z"/>
	<path class="st87" d="M1363.9,1131.8l99.1,171.7h-198.3L1363.9,1131.8z M996.3,495.1H799.9L898.1,325L996.3,495.1z M714.1,657.6
		h368l184,318.7l-184,318.7h-368l-184-318.7L714.1,657.6z M432.3,1131.8l99.1,171.7H333.2L432.3,1131.8z M898.1,0L51.7,1466h1692.8
		L898.1,0z"/>
	<path class="st88" d="M1361,1131.8l99.1,171.7h-198.3L1361,1131.8z M993.4,495.1H797L895.2,325L993.4,495.1z M711.2,657.6h368
		l184,318.7l-184,318.7h-368l-184-318.7L711.2,657.6z M429.4,1131.8l99.1,171.7H330.3L429.4,1131.8z M895.2,0L48.8,1466h1692.8
		L895.2,0z"/>
	<path class="st89" d="M1358,1131.8l99.1,171.7h-198.3L1358,1131.8z M990.4,495.1H794L892.2,325L990.4,495.1z M708.2,657.6h368
		l184,318.7l-184,318.7h-368l-184-318.7L708.2,657.6z M426.4,1131.8l99.1,171.7H327.3L426.4,1131.8z M892.2,0L45.8,1466h1692.8
		L892.2,0z"/>
	<path class="st90" d="M1355.1,1131.8l99.1,171.7h-198.3L1355.1,1131.8z M987.5,495.1H791.1L889.3,325L987.5,495.1z M705.3,657.6
		h368l184,318.7l-184,318.7h-368l-184-318.7L705.3,657.6z M423.5,1131.8l99.1,171.7H324.4L423.5,1131.8z M889.3,0L42.9,1466h1692.8
		L889.3,0z"/>
	<path class="st91" d="M1352.2,1131.8l99.1,171.7H1253L1352.2,1131.8z M984.6,495.1H788.2L886.4,325L984.6,495.1z M702.4,657.6h368
		l184,318.7l-184,318.7h-368l-184-318.7L702.4,657.6z M420.6,1131.8l99.1,171.7H321.5L420.6,1131.8z M886.4,0L40,1466h1692.8
		L886.4,0z"/>
	<path class="st92" d="M1349.2,1131.8l99.1,171.7H1250L1349.2,1131.8z M981.6,495.1H785.2L883.4,325L981.6,495.1z M699.4,657.6h368
		l184,318.7l-184,318.7h-368l-184-318.7L699.4,657.6z M417.6,1131.8l99.1,171.7H318.5L417.6,1131.8z M883.4,0L37,1466h1692.8
		L883.4,0z"/>
	<path class="st93" d="M1346.3,1131.8l99.1,171.7h-198.3L1346.3,1131.8z M978.7,495.1H782.3L880.5,325L978.7,495.1z M696.5,657.6
		h368l184,318.7l-184,318.7h-368l-184-318.7L696.5,657.6z M414.7,1131.8l99.1,171.7H315.6L414.7,1131.8z M880.5,0L34.1,1466h1692.8
		L880.5,0z"/>
	<path class="st94" d="M1343.4,1131.8l99.1,171.7h-198.3L1343.4,1131.8z M975.8,495.1H779.4L877.6,325L975.8,495.1z M693.6,657.6
		h368l184,318.7l-184,318.7h-368l-184-318.7L693.6,657.6z M411.8,1131.8l99.1,171.7H312.7L411.8,1131.8z M877.6,0L31.2,1466H1724
		L877.6,0z"/>
	<path class="st95" d="M1340.4,1131.8l99.1,171.7h-198.3L1340.4,1131.8z M972.8,495.1H776.4L874.6,325L972.8,495.1z M690.6,657.6
		h368l184,318.7l-184,318.7h-368l-184-318.7L690.6,657.6z M408.8,1131.8l99.1,171.7H309.7L408.8,1131.8z M874.6,0L28.2,1466H1721
		L874.6,0z"/>
	<path class="st96" d="M1337.5,1131.8l99.1,171.7h-198.3L1337.5,1131.8z M969.9,495.1H773.5L871.7,325L969.9,495.1z M687.7,657.6
		h368l184,318.7l-184,318.7h-368l-184-318.7L687.7,657.6z M405.9,1131.8l99.1,171.7H306.8L405.9,1131.8z M871.7,0L25.3,1466h1692.8
		L871.7,0z"/>
	<path class="st97" d="M1334.6,1131.8l99.1,171.7h-198.3L1334.6,1131.8z M967,495.1H770.6L868.8,325L967,495.1z M684.8,657.6h368
		l184,318.7l-184,318.7h-368l-184-318.7L684.8,657.6z M403,1131.8l99.1,171.7H303.9L403,1131.8z M868.8,0L22.4,1466h1692.8L868.8,0z
		"/>
	<path class="st98" d="M1331.6,1131.8l99.1,171.7h-198.3L1331.6,1131.8z M964,495.1H767.6L865.8,325L964,495.1z M681.8,657.6h368
		l184,318.7l-184,318.7h-368l-184-318.7L681.8,657.6z M400,1131.8l99.1,171.7H300.9L400,1131.8z M865.8,0L19.4,1466h1692.8L865.8,0z
		"/>
	<path class="st99" d="M1328.7,1131.8l99.1,171.7h-198.3L1328.7,1131.8z M961.1,495.1H764.7L862.9,325L961.1,495.1z M678.9,657.6
		h368l184,318.7l-184,318.7h-368l-184-318.7L678.9,657.6z M397.1,1131.8l99.1,171.7H298L397.1,1131.8z M862.9,0L16.5,1466h1692.8
		L862.9,0z"/>
	<path class="st100" d="M1325.7,1131.8l99.1,171.7h-198.3L1325.7,1131.8z M958.1,495.1H761.7L859.9,325L958.1,495.1z M675.9,657.6
		h368l184,318.7l-184,318.7h-368l-184-318.7L675.9,657.6z M394.1,1131.8l99.1,171.7H295L394.1,1131.8z M859.9,0L13.5,1466h1692.8
		L859.9,0z"/>
	<path class="st101" d="M1322.8,1131.8l99.1,171.7h-198.3L1322.8,1131.8z M955.2,495.1H758.8L857,325L955.2,495.1z M673,657.6h368
		l184,318.7L1041,1295H673L489,976.3L673,657.6z M391.2,1131.8l99.1,171.7H292.1L391.2,1131.8z M857,0L10.6,1466h1692.8L857,0z"/>
	<path class="st102" d="M1319.9,1131.8l99.1,171.7h-198.3L1319.9,1131.8z M952.3,495.1H755.9L854.1,325L952.3,495.1z M670.1,657.6
		h368l184,318.7l-184,318.7h-368l-184-318.7L670.1,657.6z M388.3,1131.8l99.1,171.7H289.2L388.3,1131.8z M854.1,0L7.7,1466h1692.8
		L854.1,0z"/>
	<path class="st103" d="M1316.9,1131.8l99.1,171.7h-198.3L1316.9,1131.8z M949.3,495.1H752.9L851.1,325L949.3,495.1z M667.1,657.6
		h368l184,318.7l-184,318.7h-368l-184-318.7L667.1,657.6z M385.3,1131.8l99.1,171.7H286.2L385.3,1131.8z M851.1,0L4.7,1466h1692.8
		L851.1,0z"/>
	<path class="st104" d="M1314,1131.8l99.1,171.7h-198.3L1314,1131.8z M946.4,495.1H750L848.2,325L946.4,495.1z M664.2,657.6h368
		l184,318.7l-184,318.7h-368l-184-318.7L664.2,657.6z M382.4,1131.8l99.1,171.7H283.3L382.4,1131.8z M848.2,0L1.8,1466h1692.8
		L848.2,0z"/>
</g>
<path d="M1314,1131.8l99.1,171.7h-198.3L1314,1131.8z M946.4,495.1H750L848.2,325L946.4,495.1z M664.2,657.6h368l184,318.7
	l-184,318.7h-368l-184-318.7L664.2,657.6z M382.4,1131.8l99.1,171.7H283.3L382.4,1131.8z M848.2,0L1.8,1466h1692.8L848.2,0z"/>
</svg>
