<?xml version="1.0" encoding="utf-8"?>
<!-- Generator: Adobe Illustrator 22.0.1, SVG Export Plug-In . SVG Version: 6.00 Build 0)  -->
<svg version="1.1" id="Layer_1" xmlns="http://www.w3.org/2000/svg" xmlns:xlink="http://www.w3.org/1999/xlink" x="0px" y="0px"
	 viewBox="0 0 555.1 557.8" style="enable-background:new 0 0 555.1 557.8;" xml:space="preserve">
<style type="text/css">
	.st0{fill:#FFFFFF;}
</style>
<g>
	<path class="st0" d="M279.2,42.1C187.8,201,97.2,358.5,6,517.2h546.3C461.2,358.7,370.5,201,279.2,42.1z M279.2,145.4
		c11,19.1,21.4,37.2,32.4,56.2h-64.8C257.7,182.7,268.1,164.7,279.2,145.4z M95.8,464.4c10.8-18.8,21.3-37.1,32.5-56.7
		c11.2,19.4,21.6,37.6,32.6,56.7H95.8z M396.2,362.6c-17.7,31.3-35.9,62.4-53.6,93.8c-2.6,4.6-5.6,5.6-10.3,5.6
		c-17.6-0.2-35.3-0.1-52.9-0.1c-17.6,0-35.3-0.2-52.9,0.1c-5.2,0.1-8.3-1.4-11-6.1c-17.5-30.8-35.3-61.4-52.7-92.3
		c-1.5-2.8-1.7-7.9-0.1-10.6c17.5-31.1,35.5-62,53.1-93c2.6-4.6,5.6-6.3,10.9-6.3c35,0.2,69.9,0.2,104.9,0c5.3,0,8.3,1.6,10.9,6.2
		c17.8,31.3,35.9,62.4,53.6,93.8C397.4,355.9,397.5,360.3,396.2,362.6z M430.2,407.8c11.3,19.7,21.5,37.6,32.3,56.5h-65
		C408.4,445.3,419,427.1,430.2,407.8z"/>
	<path class="st0" d="M279.2,42.1C187.8,201,97.2,358.5,6,517.2h546.3C461.2,358.7,370.5,201,279.2,42.1z M279.2,145.4
		c11,19.1,21.4,37.2,32.4,56.2h-64.8C257.7,182.7,268.1,164.7,279.2,145.4z M95.8,464.4c10.8-18.8,21.3-37.1,32.5-56.7
		c11.2,19.4,21.6,37.6,32.6,56.7H95.8z M396.2,362.6c-17.7,31.3-35.9,62.4-53.6,93.8c-2.6,4.6-5.6,5.6-10.3,5.6
		c-17.6-0.2-35.3-0.1-52.9-0.1c-17.6,0-35.3-0.2-52.9,0.1c-5.2,0.1-8.3-1.4-11-6.1c-17.5-30.8-35.3-61.4-52.7-92.3
		c-1.5-2.8-1.7-7.9-0.1-10.6c17.5-31.1,35.5-62,53.1-93c2.6-4.6,5.6-6.3,10.9-6.3c35,0.2,69.9,0.2,104.9,0c5.3,0,8.3,1.6,10.9,6.2
		c17.8,31.3,35.9,62.4,53.6,93.8C397.4,355.9,397.5,360.3,396.2,362.6z M430.2,407.8c11.3,19.7,21.5,37.6,32.3,56.5h-65
		C408.4,445.3,419,427.1,430.2,407.8z"/>
</g>
</svg>
