<?xml version="1.0" encoding="utf-8"?>
<!-- Generator: Adobe Illustrator 21.0.0, SVG Export Plug-In . SVG Version: 6.00 Build 0)  -->
<svg version="1.1" xmlns="http://www.w3.org/2000/svg" xmlns:xlink="http://www.w3.org/1999/xlink" x="0px" y="0px"
	 viewBox="0 0 550 374" style="enable-background:new 0 0 550 374;" xml:space="preserve">
<style type="text/css">
	.st0{fill:url(#SVGID_1_);}
	.st1{fill:none;stroke:url(#SVGID_2_);stroke-width:15;stroke-miterlimit:10;}
	.st2{fill:none;stroke:url(#SVGID_3_);stroke-width:15;stroke-miterlimit:10;}
	.st3{fill:none;stroke:url(#SVGID_4_);stroke-width:15;stroke-miterlimit:10;}
	.st4{fill:none;stroke:url(#SVGID_5_);stroke-width:15;stroke-miterlimit:10;}
	.st5{fill:none;stroke:url(#SVGID_6_);stroke-width:15;stroke-miterlimit:10;}
	.st6{fill:none;stroke:url(#SVGID_7_);stroke-width:15;stroke-miterlimit:10;}
	.st7{fill:none;stroke:url(#SVGID_8_);stroke-width:15;stroke-miterlimit:10;}
	.st8{fill:none;stroke:url(#SVGID_9_);stroke-width:15;stroke-miterlimit:10;}
	.st9{fill:none;stroke:url(#SVGID_10_);stroke-width:15;stroke-miterlimit:10;}
	.st10{fill:none;stroke:url(#SVGID_11_);stroke-width:15;stroke-miterlimit:10;}
	.st11{fill:none;stroke:url(#SVGID_12_);stroke-width:15;stroke-miterlimit:10;}
	.st12{fill:none;stroke:url(#SVGID_13_);stroke-width:15;stroke-miterlimit:10;}
	.st13{fill:none;stroke:url(#SVGID_14_);stroke-width:15;stroke-miterlimit:10;}
	.st14{fill:none;stroke:url(#SVGID_15_);stroke-width:15;stroke-miterlimit:10;}
	.st15{fill:none;stroke:url(#SVGID_16_);stroke-width:15;stroke-miterlimit:10;}
	.st16{fill:none;stroke:url(#SVGID_17_);stroke-width:15;stroke-miterlimit:10;}
	.st17{fill:none;stroke:url(#SVGID_18_);stroke-width:15;stroke-miterlimit:10;}
	.st18{fill:none;stroke:url(#SVGID_19_);stroke-width:15;stroke-miterlimit:10;}
	.st19{fill:none;stroke:url(#SVGID_20_);stroke-width:15;stroke-miterlimit:10;}
	.st20{fill:none;stroke:url(#SVGID_21_);stroke-width:15;stroke-miterlimit:10;}
	.st21{fill:none;stroke:url(#SVGID_22_);stroke-width:15;stroke-miterlimit:10;}
	.st22{fill:none;stroke:url(#SVGID_23_);stroke-width:15;stroke-miterlimit:10;}
	.st23{fill:none;stroke:url(#SVGID_24_);stroke-width:15;stroke-miterlimit:10;}
	.st24{fill:none;stroke:url(#SVGID_25_);stroke-width:15;stroke-miterlimit:10;}
	.st25{fill:none;stroke:url(#SVGID_26_);stroke-width:15;stroke-miterlimit:10;}
	.st26{fill:none;stroke:url(#SVGID_27_);stroke-width:15;stroke-miterlimit:10;}
	.st27{fill:none;stroke:url(#SVGID_28_);stroke-width:15;stroke-miterlimit:10;}
	.st28{fill:none;stroke:url(#SVGID_29_);stroke-width:15;stroke-miterlimit:10;}
	.st29{fill:url(#SVGID_30_);}
	.st30{fill:url(#SVGID_31_);}
	.st31{fill:url(#SVGID_32_);}
	.st32{fill:url(#SVGID_33_);}
	.st33{fill:url(#SVGID_34_);}
	.st34{fill:url(#SVGID_35_);}
	.st35{fill:url(#SVGID_36_);}
	.st36{fill:url(#SVGID_37_);}
	.st37{fill:url(#SVGID_38_);}
</style>
<g id="Layer_1">
	<g>
		<linearGradient id="SVGID_1_" gradientUnits="userSpaceOnUse" x1="-8.4079" y1="365.8551" x2="561.1569" y2="6.41">
			<stop  offset="0" style="stop-color:#62BCFA"/>
			<stop  offset="1" style="stop-color:#6534FF"/>
		</linearGradient>
		<path class="st0" d="M43.5,374h463c24,0,43.5-19.5,43.5-43.5v-287c0-24-19.5-43.5-43.5-43.5h-463C19.5,0,0,19.5,0,43.5v287
			C0,354.5,19.5,374,43.5,374z"/>
	</g>
</g>
<g id="Layer_2">
	<linearGradient id="SVGID_2_" gradientUnits="userSpaceOnUse" x1="145.2251" y1="267.2037" x2="410.2484" y2="99.9509">
		<stop  offset="0" style="stop-color:#6534FF"/>
		<stop  offset="1" style="stop-color:#62BCFA"/>
	</linearGradient>
	<polygon class="st1" points="281.5,29.9 183.4,65.6 131.2,156 149.4,258.8 229.3,325.9 333.7,325.9 413.6,258.8 431.8,156 
		379.6,65.6 	"/>
	<g>
		<linearGradient id="SVGID_3_" gradientUnits="userSpaceOnUse" x1="189.3179" y1="88.5828" x2="285.9665" y2="27.5892">
			<stop  offset="0" style="stop-color:#6534FF"/>
			<stop  offset="1" style="stop-color:#62BCFA"/>
		</linearGradient>
		<path class="st2" d="M183,66c0,0,71,43,99-36"/>
		<linearGradient id="SVGID_4_" gradientUnits="userSpaceOnUse" x1="274.5641" y1="57.0768" x2="383.1035" y2="57.0768">
			<stop  offset="0" style="stop-color:#6534FF"/>
			<stop  offset="1" style="stop-color:#62BCFA"/>
		</linearGradient>
		<path class="st3" d="M282,30c0,0,10,76,98,36"/>
		<linearGradient id="SVGID_5_" gradientUnits="userSpaceOnUse" x1="178.1103" y1="87.351" x2="385.3613" y2="87.351">
			<stop  offset="0" style="stop-color:#6534FF"/>
			<stop  offset="1" style="stop-color:#62BCFA"/>
		</linearGradient>
		<path class="st4" d="M380,66c0,0-90,92-197,0"/>
	</g>
	<g>
		
			<linearGradient id="SVGID_6_" gradientUnits="userSpaceOnUse" x1="172.6596" y1="97.3533" x2="269.3082" y2="36.3597" gradientTransform="matrix(0.7638 -0.6455 0.6455 0.7638 -45.6169 205.4282)">
			<stop  offset="0" style="stop-color:#6534FF"/>
			<stop  offset="1" style="stop-color:#62BCFA"/>
		</linearGradient>
		<path class="st5" d="M129.7,155.2c0,0,82-13,52.4-91.4"/>
		
			<linearGradient id="SVGID_7_" gradientUnits="userSpaceOnUse" x1="257.9058" y1="65.8473" x2="366.4452" y2="65.8473" gradientTransform="matrix(0.7638 -0.6455 0.6455 0.7638 -45.6169 205.4282)">
			<stop  offset="0" style="stop-color:#6534FF"/>
			<stop  offset="1" style="stop-color:#62BCFA"/>
		</linearGradient>
		<path class="st6" d="M182.1,63.8c0,0,56.7,51.6,98.1-35.8"/>
		
			<linearGradient id="SVGID_8_" gradientUnits="userSpaceOnUse" x1="161.452" y1="96.1215" x2="368.7029" y2="96.1215" gradientTransform="matrix(0.7638 -0.6455 0.6455 0.7638 -45.6169 205.4282)">
			<stop  offset="0" style="stop-color:#6534FF"/>
			<stop  offset="1" style="stop-color:#62BCFA"/>
		</linearGradient>
		<path class="st7" d="M280.2,28c0,0-9.4,128.4-150.5,127.2"/>
	</g>
	<g>
		
			<linearGradient id="SVGID_9_" gradientUnits="userSpaceOnUse" x1="97.6325" y1="143.439" x2="194.281" y2="82.4454" gradientTransform="matrix(0.1628 -0.9867 0.9867 0.1628 15.9436 328.6544)">
			<stop  offset="0" style="stop-color:#6534FF"/>
			<stop  offset="1" style="stop-color:#62BCFA"/>
		</linearGradient>
		<path class="st8" d="M150.1,258.2c0,0,54-63.1-19.4-103.5"/>
		
			<linearGradient id="SVGID_10_" gradientUnits="userSpaceOnUse" x1="182.8786" y1="111.933" x2="291.4181" y2="111.933" gradientTransform="matrix(0.1628 -0.9867 0.9867 0.1628 15.9436 328.6544)">
			<stop  offset="0" style="stop-color:#6534FF"/>
			<stop  offset="1" style="stop-color:#62BCFA"/>
		</linearGradient>
		<path class="st9" d="M130.6,154.7c0,0,76.6,2.5,51.5-90.8"/>
		
			<linearGradient id="SVGID_11_" gradientUnits="userSpaceOnUse" x1="86.4249" y1="142.2072" x2="293.6758" y2="142.2072" gradientTransform="matrix(0.1628 -0.9867 0.9867 0.1628 15.9436 328.6544)">
			<stop  offset="0" style="stop-color:#6534FF"/>
			<stop  offset="1" style="stop-color:#62BCFA"/>
		</linearGradient>
		<path class="st10" d="M182.1,63.9c0,0,76.1,103.8-32.1,194.4"/>
	</g>
	<g>
		
			<linearGradient id="SVGID_12_" gradientUnits="userSpaceOnUse" x1="68.7991" y1="149.8936" x2="165.4477" y2="88.8999" gradientTransform="matrix(-0.5029 -0.8643 0.8643 -0.5029 149.3023 444.8412)">
			<stop  offset="0" style="stop-color:#6534FF"/>
			<stop  offset="1" style="stop-color:#62BCFA"/>
		</linearGradient>
		<path class="st11" d="M227.9,326.8c0,0,1.5-83-80.9-67.5"/>
		
			<linearGradient id="SVGID_13_" gradientUnits="userSpaceOnUse" x1="154.0453" y1="118.3875" x2="262.5847" y2="118.3875" gradientTransform="matrix(-0.5029 -0.8643 0.8643 -0.5029 149.3023 444.8412)">
			<stop  offset="0" style="stop-color:#6534FF"/>
			<stop  offset="1" style="stop-color:#62BCFA"/>
		</linearGradient>
		<path class="st12" d="M147,259.3c0,0,60.7-46.9-18.2-102.8"/>
		
			<linearGradient id="SVGID_14_" gradientUnits="userSpaceOnUse" x1="57.5915" y1="148.6617" x2="264.8424" y2="148.6617" gradientTransform="matrix(-0.5029 -0.8643 0.8643 -0.5029 149.3023 444.8412)">
			<stop  offset="0" style="stop-color:#6534FF"/>
			<stop  offset="1" style="stop-color:#62BCFA"/>
		</linearGradient>
		<path class="st13" d="M128.9,156.5c0,0,124.8,31.5,99.1,170.3"/>
	</g>
	<g>
		
			<linearGradient id="SVGID_15_" gradientUnits="userSpaceOnUse" x1="17.2326" y1="178.6543" x2="113.8811" y2="117.6607" gradientTransform="matrix(-0.9379 -0.3469 0.3469 -0.9379 290.1216 479.0752)">
			<stop  offset="0" style="stop-color:#6534FF"/>
			<stop  offset="1" style="stop-color:#62BCFA"/>
		</linearGradient>
		<path class="st14" d="M334,328.9c0,0-51.7-65-105.3-0.6"/>
		
			<linearGradient id="SVGID_16_" gradientUnits="userSpaceOnUse" x1="102.4787" y1="147.1483" x2="211.0181" y2="147.1483" gradientTransform="matrix(-0.9379 -0.3469 0.3469 -0.9379 290.1216 479.0752)">
			<stop  offset="0" style="stop-color:#6534FF"/>
			<stop  offset="1" style="stop-color:#62BCFA"/>
		</linearGradient>
		<path class="st15" d="M228.7,328.3c0,0,17-74.7-79.4-67.8"/>
		
			<linearGradient id="SVGID_17_" gradientUnits="userSpaceOnUse" x1="6.0249" y1="177.4225" x2="213.2759" y2="177.4225" gradientTransform="matrix(-0.9379 -0.3469 0.3469 -0.9379 290.1216 479.0752)">
			<stop  offset="0" style="stop-color:#6534FF"/>
			<stop  offset="1" style="stop-color:#62BCFA"/>
		</linearGradient>
		<path class="st16" d="M149.3,260.6c0,0,116.3-55.1,184.8,68.3"/>
	</g>
	<g>
		
			<linearGradient id="SVGID_18_" gradientUnits="userSpaceOnUse" x1="-19.1649" y1="222.9729" x2="77.4836" y2="161.9792" gradientTransform="matrix(-0.9393 0.3432 -0.3432 -0.9393 460.6929 456.9015)">
			<stop  offset="0" style="stop-color:#6534FF"/>
			<stop  offset="1" style="stop-color:#62BCFA"/>
		</linearGradient>
		<path class="st17" d="M415.9,259.9c0,0-81.4-16-80.6,67.8"/>
		
			<linearGradient id="SVGID_19_" gradientUnits="userSpaceOnUse" x1="66.0812" y1="191.4668" x2="174.6207" y2="191.4668" gradientTransform="matrix(-0.9393 0.3432 -0.3432 -0.9393 460.6929 456.9015)">
			<stop  offset="0" style="stop-color:#6534FF"/>
			<stop  offset="1" style="stop-color:#62BCFA"/>
		</linearGradient>
		<path class="st18" d="M335.2,327.7c0,0-35.5-68-104.4-0.2"/>
		
			<linearGradient id="SVGID_20_" gradientUnits="userSpaceOnUse" x1="-30.3725" y1="221.741" x2="176.8784" y2="221.741" gradientTransform="matrix(-0.9393 0.3432 -0.3432 -0.9393 460.6929 456.9015)">
			<stop  offset="0" style="stop-color:#6534FF"/>
			<stop  offset="1" style="stop-color:#62BCFA"/>
		</linearGradient>
		<path class="st19" d="M230.8,327.5c0,0,53-117.3,185-67.6"/>
	</g>
	<g>
		
			<linearGradient id="SVGID_21_" gradientUnits="userSpaceOnUse" x1="-8.6462" y1="283.0034" x2="88.0024" y2="222.0097" gradientTransform="matrix(0.5029 -0.8643 -0.8643 -0.5029 565.702 444.8412)">
			<stop  offset="0" style="stop-color:#6534FF"/>
			<stop  offset="1" style="stop-color:#62BCFA"/>
		</linearGradient>
		<path class="st20" d="M333.1,326.8c0,0-1.5-83,80.9-67.5"/>
		
			<linearGradient id="SVGID_22_" gradientUnits="userSpaceOnUse" x1="76.6" y1="251.4973" x2="185.1394" y2="251.4973" gradientTransform="matrix(0.5029 -0.8643 -0.8643 -0.5029 565.702 444.8412)">
			<stop  offset="0" style="stop-color:#6534FF"/>
			<stop  offset="1" style="stop-color:#62BCFA"/>
		</linearGradient>
		<path class="st21" d="M414,259.3c0,0-60.7-46.9,18.2-102.8"/>
		
			<linearGradient id="SVGID_23_" gradientUnits="userSpaceOnUse" x1="-19.8538" y1="281.7715" x2="187.3971" y2="281.7715" gradientTransform="matrix(0.5029 -0.8643 -0.8643 -0.5029 565.702 444.8412)">
			<stop  offset="0" style="stop-color:#6534FF"/>
			<stop  offset="1" style="stop-color:#62BCFA"/>
		</linearGradient>
		<path class="st22" d="M432.2,156.5c0,0-124.8,31.5-99.1,170.3"/>
	</g>
	<g>
		
			<linearGradient id="SVGID_24_" gradientUnits="userSpaceOnUse" x1="122.7027" y1="295.3847" x2="219.3512" y2="234.391" gradientTransform="matrix(-0.1628 -0.9867 -0.9867 0.1628 699.0607 328.6544)">
			<stop  offset="0" style="stop-color:#6534FF"/>
			<stop  offset="1" style="stop-color:#62BCFA"/>
		</linearGradient>
		<path class="st23" d="M411,258.2c0,0-54-63.1,19.4-103.5"/>
		
			<linearGradient id="SVGID_25_" gradientUnits="userSpaceOnUse" x1="207.9488" y1="263.8786" x2="316.4883" y2="263.8786" gradientTransform="matrix(-0.1628 -0.9867 -0.9867 0.1628 699.0607 328.6544)">
			<stop  offset="0" style="stop-color:#6534FF"/>
			<stop  offset="1" style="stop-color:#62BCFA"/>
		</linearGradient>
		<path class="st24" d="M430.4,154.7c0,0-76.6,2.5-51.5-90.8"/>
		
			<linearGradient id="SVGID_26_" gradientUnits="userSpaceOnUse" x1="111.4951" y1="294.1529" x2="318.746" y2="294.1529" gradientTransform="matrix(-0.1628 -0.9867 -0.9867 0.1628 699.0607 328.6544)">
			<stop  offset="0" style="stop-color:#6534FF"/>
			<stop  offset="1" style="stop-color:#62BCFA"/>
		</linearGradient>
		<path class="st25" d="M378.9,63.9c0,0-76.1,103.8,32.1,194.4"/>
	</g>
	<g>
		
			<linearGradient id="SVGID_27_" gradientUnits="userSpaceOnUse" x1="290.2779" y1="196.7613" x2="386.9264" y2="135.7677" gradientTransform="matrix(-0.7638 -0.6455 -0.6455 0.7638 760.6211 205.4282)">
			<stop  offset="0" style="stop-color:#6534FF"/>
			<stop  offset="1" style="stop-color:#62BCFA"/>
		</linearGradient>
		<path class="st26" d="M431.3,155.2c0,0-82-13-52.4-91.4"/>
		
			<linearGradient id="SVGID_28_" gradientUnits="userSpaceOnUse" x1="375.524" y1="165.2553" x2="484.0634" y2="165.2553" gradientTransform="matrix(-0.7638 -0.6455 -0.6455 0.7638 760.6211 205.4282)">
			<stop  offset="0" style="stop-color:#6534FF"/>
			<stop  offset="1" style="stop-color:#62BCFA"/>
		</linearGradient>
		<path class="st27" d="M378.9,63.8c0,0-56.7,51.6-98.1-35.8"/>
		
			<linearGradient id="SVGID_29_" gradientUnits="userSpaceOnUse" x1="279.0703" y1="195.5295" x2="486.3212" y2="195.5295" gradientTransform="matrix(-0.7638 -0.6455 -0.6455 0.7638 760.6211 205.4282)">
			<stop  offset="0" style="stop-color:#6534FF"/>
			<stop  offset="1" style="stop-color:#62BCFA"/>
		</linearGradient>
		<path class="st28" d="M280.9,28c0,0,9.4,128.4,150.5,127.2"/>
	</g>
</g>
<g id="Layer_3">
	<linearGradient id="SVGID_30_" gradientUnits="userSpaceOnUse" x1="212.0843" y1="336.6753" x2="245.9157" y2="315.3247">
		<stop  offset="0" style="stop-color:#6534FF"/>
		<stop  offset="1" style="stop-color:#62BCFA"/>
	</linearGradient>
	<circle class="st29" cx="229" cy="326" r="20"/>
	<linearGradient id="SVGID_31_" gradientUnits="userSpaceOnUse" x1="132.0843" y1="269.6753" x2="165.9157" y2="248.3247">
		<stop  offset="0" style="stop-color:#6534FF"/>
		<stop  offset="1" style="stop-color:#62BCFA"/>
	</linearGradient>
	<circle class="st30" cx="149" cy="259" r="20"/>
	<linearGradient id="SVGID_32_" gradientUnits="userSpaceOnUse" x1="114.0843" y1="166.6753" x2="147.9157" y2="145.3247">
		<stop  offset="0" style="stop-color:#6534FF"/>
		<stop  offset="1" style="stop-color:#62BCFA"/>
	</linearGradient>
	<circle class="st31" cx="131" cy="156" r="20"/>
	<linearGradient id="SVGID_33_" gradientUnits="userSpaceOnUse" x1="166.0843" y1="76.6753" x2="199.9157" y2="55.3247">
		<stop  offset="0" style="stop-color:#6534FF"/>
		<stop  offset="1" style="stop-color:#62BCFA"/>
	</linearGradient>
	<circle class="st32" cx="183" cy="66" r="20"/>
	<linearGradient id="SVGID_34_" gradientUnits="userSpaceOnUse" x1="265.0843" y1="40.6753" x2="298.9157" y2="19.3247">
		<stop  offset="0" style="stop-color:#6534FF"/>
		<stop  offset="1" style="stop-color:#62BCFA"/>
	</linearGradient>
	<circle class="st33" cx="282" cy="30" r="20"/>
	<linearGradient id="SVGID_35_" gradientUnits="userSpaceOnUse" x1="317.0843" y1="336.6753" x2="350.9157" y2="315.3247">
		<stop  offset="0" style="stop-color:#6534FF"/>
		<stop  offset="1" style="stop-color:#62BCFA"/>
	</linearGradient>
	<circle class="st34" cx="334" cy="326" r="20"/>
	<linearGradient id="SVGID_36_" gradientUnits="userSpaceOnUse" x1="415.0843" y1="166.6753" x2="448.9157" y2="145.3247">
		<stop  offset="0" style="stop-color:#6534FF"/>
		<stop  offset="1" style="stop-color:#62BCFA"/>
	</linearGradient>
	<circle class="st35" cx="432" cy="156" r="20"/>
	<linearGradient id="SVGID_37_" gradientUnits="userSpaceOnUse" x1="397.0843" y1="269.6753" x2="430.9157" y2="248.3247">
		<stop  offset="0" style="stop-color:#6534FF"/>
		<stop  offset="1" style="stop-color:#62BCFA"/>
	</linearGradient>
	<circle class="st36" cx="414" cy="259" r="20"/>
	<linearGradient id="SVGID_38_" gradientUnits="userSpaceOnUse" x1="363.0843" y1="76.6753" x2="396.9157" y2="55.3247">
		<stop  offset="0" style="stop-color:#6534FF"/>
		<stop  offset="1" style="stop-color:#62BCFA"/>
	</linearGradient>
	<circle class="st37" cx="380" cy="66" r="20"/>
</g>
</svg>
