<?xml version="1.0" encoding="utf-8"?>
<!-- Generator: Adobe Illustrator 21.0.0, SVG Export Plug-In . SVG Version: 6.00 Build 0)  -->
<svg version="1.1" xmlns="http://www.w3.org/2000/svg" xmlns:xlink="http://www.w3.org/1999/xlink" x="0px" y="0px"
	 viewBox="0 0 550 374" style="enable-background:new 0 0 550 374;" xml:space="preserve">
<style type="text/css">
	.st0{fill:url(#SVGID_1_);}
	.st1{fill:none;stroke:url(#SVGID_2_);stroke-width:20;stroke-miterlimit:10;}
	.st2{fill:none;stroke:url(#SVGID_3_);stroke-width:20;stroke-miterlimit:10;}
	.st3{fill:none;stroke:url(#SVGID_4_);stroke-width:20;stroke-miterlimit:10;}
	.st4{fill:none;stroke:url(#SVGID_5_);stroke-width:20;stroke-miterlimit:10;}
	.st5{fill:none;stroke:url(#SVGID_6_);stroke-width:20;stroke-miterlimit:10;}
	.st6{fill:none;stroke:url(#SVGID_7_);stroke-width:20;stroke-miterlimit:10;}
	.st7{fill:none;stroke:url(#SVGID_8_);stroke-width:20;stroke-miterlimit:10;}
	.st8{fill:none;stroke:url(#SVGID_9_);stroke-width:20;stroke-miterlimit:10;}
	.st9{fill:none;stroke:url(#SVGID_10_);stroke-width:20;stroke-miterlimit:10;}
	.st10{fill:none;stroke:url(#SVGID_11_);stroke-width:20;stroke-miterlimit:10;}
	.st11{fill:none;stroke:url(#SVGID_12_);stroke-width:20;stroke-miterlimit:10;}
	.st12{fill:none;stroke:url(#SVGID_13_);stroke-width:20;stroke-miterlimit:10;}
	.st13{fill:none;stroke:url(#SVGID_14_);stroke-width:20;stroke-miterlimit:10;}
	.st14{fill:none;stroke:url(#SVGID_15_);stroke-width:20;stroke-miterlimit:10;}
	.st15{fill:none;stroke:url(#SVGID_16_);stroke-width:20;stroke-miterlimit:10;}
	.st16{fill:none;stroke:url(#SVGID_17_);stroke-width:20;stroke-miterlimit:10;}
	.st17{fill:none;stroke:url(#SVGID_18_);stroke-width:20;stroke-miterlimit:10;}
	.st18{fill:none;stroke:url(#SVGID_19_);stroke-width:20;stroke-miterlimit:10;}
	.st19{fill:none;stroke:url(#SVGID_20_);stroke-width:20;stroke-miterlimit:10;}
	.st20{fill:none;stroke:url(#SVGID_21_);stroke-width:20;stroke-miterlimit:10;}
	.st21{fill:none;stroke:url(#SVGID_22_);stroke-width:20;stroke-miterlimit:10;}
	.st22{fill:none;stroke:url(#SVGID_23_);stroke-width:20;stroke-miterlimit:10;}
	.st23{fill:none;stroke:url(#SVGID_24_);stroke-width:20;stroke-miterlimit:10;}
	.st24{fill:none;stroke:url(#SVGID_25_);stroke-width:20;stroke-miterlimit:10;}
	.st25{fill:none;stroke:url(#SVGID_26_);stroke-width:20;stroke-miterlimit:10;}
	.st26{fill:none;stroke:url(#SVGID_27_);stroke-width:20;stroke-miterlimit:10;}
	.st27{fill:none;stroke:url(#SVGID_28_);stroke-width:20;stroke-miterlimit:10;}
	.st28{fill:none;stroke:url(#SVGID_29_);stroke-width:20;stroke-miterlimit:10;}
	.st29{fill:url(#SVGID_30_);}
	.st30{fill:url(#SVGID_31_);}
	.st31{fill:url(#SVGID_32_);}
	.st32{fill:url(#SVGID_33_);}
	.st33{fill:url(#SVGID_34_);}
	.st34{fill:url(#SVGID_35_);}
	.st35{fill:url(#SVGID_36_);}
	.st36{fill:url(#SVGID_37_);}
	.st37{fill:url(#SVGID_38_);}
</style>
<g id="Layer_2_1_">
	<g id="Layer_1_1_">
		<g>
			
				<linearGradient id="SVGID_1_" gradientUnits="userSpaceOnUse" x1="-8.2673" y1="7.9259" x2="561.015" y2="367.8111" gradientTransform="matrix(1 0 0 -1 0 374)">
				<stop  offset="0" style="stop-color:#90CAF9"/>
				<stop  offset="1" style="stop-color:#673AB7"/>
			</linearGradient>
			<path class="st0" d="M43.5,374h463c24,0,43.5-19.5,43.5-43.5v-287c0-24-19.5-43.5-43.5-43.5h-463C19.5,0,0,19.5,0,43.5v287
				C0,354.5,19.5,374,43.5,374z"/>
		</g>
	</g>
</g>
<g id="Layer_1">
	<g id="Layer_2">
		<linearGradient id="SVGID_2_" gradientUnits="userSpaceOnUse" x1="136.5628" y1="277.6709" x2="405.8506" y2="107.4342">
			<stop  offset="0" style="stop-color:#673AB7"/>
			<stop  offset="1" style="stop-color:#89B0ED"/>
		</linearGradient>
		<polygon class="st1" points="275,38.9 176.9,74.6 124.7,165 142.9,267.8 222.8,334.9 327.2,334.9 407.1,267.8 425.3,165 
			373.1,74.6 		"/>
		<g>
			<linearGradient id="SVGID_3_" gradientUnits="userSpaceOnUse" x1="181.3254" y1="99.3811" x2="281.1076" y2="36.3014">
				<stop  offset="0" style="stop-color:#673AB7"/>
				<stop  offset="1" style="stop-color:#89B0ED"/>
			</linearGradient>
			<path class="st2" d="M176.5,75c0,0,71,43,99-36"/>
			<linearGradient id="SVGID_4_" gradientUnits="userSpaceOnUse" x1="286.3061" y1="84.5234" x2="354.0601" y2="41.6911">
				<stop  offset="0" style="stop-color:#673AB7"/>
				<stop  offset="1" style="stop-color:#89B0ED"/>
			</linearGradient>
			<path class="st3" d="M275.5,39c0,0,10,76,98,36"/>
			<linearGradient id="SVGID_5_" gradientUnits="userSpaceOnUse" x1="199.1719" y1="128.759" x2="349.9536" y2="33.4387">
				<stop  offset="0" style="stop-color:#673AB7"/>
				<stop  offset="1" style="stop-color:#89B0ED"/>
			</linearGradient>
			<path class="st4" d="M373.5,75c0,0-90,92-197,0"/>
		</g>
		<g>
			<linearGradient id="SVGID_6_" gradientUnits="userSpaceOnUse" x1="110.5635" y1="151.6108" x2="200.9058" y2="94.4988">
				<stop  offset="0" style="stop-color:#673AB7"/>
				<stop  offset="1" style="stop-color:#89B0ED"/>
			</linearGradient>
			<path class="st5" d="M123.2,164.2c0,0,82-13,52.4-91.4"/>
			<linearGradient id="SVGID_7_" gradientUnits="userSpaceOnUse" x1="180.2472" y1="98.1938" x2="279.1788" y2="35.6518">
				<stop  offset="0" style="stop-color:#673AB7"/>
				<stop  offset="1" style="stop-color:#89B0ED"/>
			</linearGradient>
			<path class="st6" d="M175.6,72.8c0,0,56.7,51.6,98.1-35.8"/>
			<linearGradient id="SVGID_8_" gradientUnits="userSpaceOnUse" x1="119.9799" y1="169.2405" x2="296.3326" y2="57.755">
				<stop  offset="0" style="stop-color:#673AB7"/>
				<stop  offset="1" style="stop-color:#89B0ED"/>
			</linearGradient>
			<path class="st7" d="M273.7,37c0,0-9.4,128.4-150.5,127.2"/>
		</g>
		<g>
			<linearGradient id="SVGID_9_" gradientUnits="userSpaceOnUse" x1="116.228" y1="229.4181" x2="169.7715" y2="195.5693">
				<stop  offset="0" style="stop-color:#673AB7"/>
				<stop  offset="1" style="stop-color:#89B0ED"/>
			</linearGradient>
			<path class="st8" d="M143.6,267.2c0,0,54-63.1-19.4-103.5"/>
			<linearGradient id="SVGID_10_" gradientUnits="userSpaceOnUse" x1="110.7584" y1="153.1063" x2="201.3849" y2="95.8146">
				<stop  offset="0" style="stop-color:#673AB7"/>
				<stop  offset="1" style="stop-color:#89B0ED"/>
			</linearGradient>
			<path class="st9" d="M124.1,163.7c0,0,76.6,2.5,51.5-90.8"/>
			<linearGradient id="SVGID_11_" gradientUnits="userSpaceOnUse" x1="105.521" y1="209.7114" x2="225.9307" y2="133.5915">
				<stop  offset="0" style="stop-color:#673AB7"/>
				<stop  offset="1" style="stop-color:#89B0ED"/>
			</linearGradient>
			<path class="st10" d="M175.6,72.9c0,0,76.1,103.8-32.1,194.4"/>
		</g>
		<g>
			<linearGradient id="SVGID_12_" gradientUnits="userSpaceOnUse" x1="163.1604" y1="311.0486" x2="213.2601" y2="279.3769">
				<stop  offset="0" style="stop-color:#673AB7"/>
				<stop  offset="1" style="stop-color:#89B0ED"/>
			</linearGradient>
			<path class="st11" d="M221.4,335.8c0,0,1.5-83-80.9-67.5"/>
			<linearGradient id="SVGID_13_" gradientUnits="userSpaceOnUse" x1="115.5343" y1="230.5665" x2="166.6904" y2="198.227">
				<stop  offset="0" style="stop-color:#673AB7"/>
				<stop  offset="1" style="stop-color:#89B0ED"/>
			</linearGradient>
			<path class="st12" d="M140.5,268.3c0,0,60.7-46.9-18.2-102.8"/>
			<linearGradient id="SVGID_14_" gradientUnits="userSpaceOnUse" x1="162.6641" y1="256.4642" x2="215.0001" y2="223.3788">
				<stop  offset="0" style="stop-color:#673AB7"/>
				<stop  offset="1" style="stop-color:#89B0ED"/>
			</linearGradient>
			<path class="st13" d="M122.4,165.5c0,0,124.8,31.5,99.1,170.3"/>
		</g>
		<g>
			<linearGradient id="SVGID_15_" gradientUnits="userSpaceOnUse" x1="231.0498" y1="357.0601" x2="317.0175" y2="302.7135">
				<stop  offset="0" style="stop-color:#673AB7"/>
				<stop  offset="1" style="stop-color:#89B0ED"/>
			</linearGradient>
			<path class="st14" d="M327.5,337.9c0,0-51.7-65-105.3-0.6"/>
			<linearGradient id="SVGID_16_" gradientUnits="userSpaceOnUse" x1="164.9908" y1="313.4475" x2="217.954" y2="279.9656">
				<stop  offset="0" style="stop-color:#673AB7"/>
				<stop  offset="1" style="stop-color:#89B0ED"/>
			</linearGradient>
			<path class="st15" d="M222.2,337.3c0,0,17-74.7-79.4-67.8"/>
			<linearGradient id="SVGID_17_" gradientUnits="userSpaceOnUse" x1="181.085" y1="332.4252" x2="292.0527" y2="262.2743">
				<stop  offset="0" style="stop-color:#673AB7"/>
				<stop  offset="1" style="stop-color:#89B0ED"/>
			</linearGradient>
			<path class="st16" d="M142.8,269.6c0,0,116.3-55.1,184.8,68.3"/>
		</g>
		<g>
			<linearGradient id="SVGID_18_" gradientUnits="userSpaceOnUse" x1="310.772" y1="324.0957" x2="411.9785" y2="260.1156">
				<stop  offset="0" style="stop-color:#673AB7"/>
				<stop  offset="1" style="stop-color:#89B0ED"/>
			</linearGradient>
			<path class="st17" d="M409.4,268.9c0,0-81.4-16-80.6,67.8"/>
			<linearGradient id="SVGID_19_" gradientUnits="userSpaceOnUse" x1="234.0744" y1="355.9288" x2="318.8937" y2="302.3083">
				<stop  offset="0" style="stop-color:#673AB7"/>
				<stop  offset="1" style="stop-color:#89B0ED"/>
			</linearGradient>
			<path class="st18" d="M328.7,336.7c0,0-35.5-68-104.4-0.2"/>
			<linearGradient id="SVGID_20_" gradientUnits="userSpaceOnUse" x1="223.8563" y1="346.0958" x2="397.9612" y2="236.0313">
				<stop  offset="0" style="stop-color:#673AB7"/>
				<stop  offset="1" style="stop-color:#89B0ED"/>
			</linearGradient>
			<path class="st19" d="M224.3,336.5c0,0,53-117.3,185-67.6"/>
		</g>
		<g>
			<linearGradient id="SVGID_21_" gradientUnits="userSpaceOnUse" x1="308.4526" y1="323.0902" x2="409.7253" y2="259.0682">
				<stop  offset="0" style="stop-color:#673AB7"/>
				<stop  offset="1" style="stop-color:#89B0ED"/>
			</linearGradient>
			<path class="st20" d="M326.6,335.8c0,0-1.5-83,80.9-67.5"/>
			<linearGradient id="SVGID_22_" gradientUnits="userSpaceOnUse" x1="373.9246" y1="239.9951" x2="445.0084" y2="195.0578">
				<stop  offset="0" style="stop-color:#673AB7"/>
				<stop  offset="1" style="stop-color:#89B0ED"/>
			</linearGradient>
			<path class="st21" d="M407.5,268.3c0,0-60.7-46.9,18.2-102.8"/>
			<linearGradient id="SVGID_23_" gradientUnits="userSpaceOnUse" x1="291.2212" y1="297.2109" x2="449.4223" y2="197.2003">
				<stop  offset="0" style="stop-color:#673AB7"/>
				<stop  offset="1" style="stop-color:#89B0ED"/>
			</linearGradient>
			<path class="st22" d="M425.7,165.5c0,0-124.8,31.5-99.1,170.3"/>
		</g>
		<g>
			<linearGradient id="SVGID_24_" gradientUnits="userSpaceOnUse" x1="372.5984" y1="236.5502" x2="442.6676" y2="192.2543">
				<stop  offset="0" style="stop-color:#673AB7"/>
				<stop  offset="1" style="stop-color:#89B0ED"/>
			</linearGradient>
			<path class="st23" d="M404.5,267.2c0,0-54-63.1,19.4-103.5"/>
			<linearGradient id="SVGID_25_" gradientUnits="userSpaceOnUse" x1="364.3057" y1="140.4446" x2="406.3225" y2="113.8827">
				<stop  offset="0" style="stop-color:#673AB7"/>
				<stop  offset="1" style="stop-color:#89B0ED"/>
			</linearGradient>
			<path class="st24" d="M423.9,163.7c0,0-76.6,2.5-51.5-90.8"/>
			<linearGradient id="SVGID_26_" gradientUnits="userSpaceOnUse" x1="338.0005" y1="198.2916" x2="422.3047" y2="144.9968">
				<stop  offset="0" style="stop-color:#673AB7"/>
				<stop  offset="1" style="stop-color:#89B0ED"/>
			</linearGradient>
			<path class="st25" d="M372.4,72.9c0,0-76.1,103.8,32.1,194.4"/>
		</g>
		<g>
			<linearGradient id="SVGID_27_" gradientUnits="userSpaceOnUse" x1="365.7689" y1="138.9751" x2="405.4846" y2="113.8679">
				<stop  offset="0" style="stop-color:#673AB7"/>
				<stop  offset="1" style="stop-color:#89B0ED"/>
			</linearGradient>
			<path class="st26" d="M424.8,164.2c0,0-82-13-52.4-91.4"/>
			<linearGradient id="SVGID_28_" gradientUnits="userSpaceOnUse" x1="289.4111" y1="81.9261" x2="354.2943" y2="40.9086">
				<stop  offset="0" style="stop-color:#673AB7"/>
				<stop  offset="1" style="stop-color:#89B0ED"/>
			</linearGradient>
			<path class="st27" d="M372.4,72.8c0,0-56.7,51.6-98.1-35.8"/>
			<linearGradient id="SVGID_29_" gradientUnits="userSpaceOnUse" x1="304.2" y1="131.5717" x2="380.1548" y2="83.555">
				<stop  offset="0" style="stop-color:#673AB7"/>
				<stop  offset="1" style="stop-color:#89B0ED"/>
			</linearGradient>
			<path class="st28" d="M274.4,37c0,0,9.4,128.4,150.5,127.2"/>
		</g>
	</g>
	<g id="Layer_3">
		
			<linearGradient id="SVGID_30_" gradientUnits="userSpaceOnUse" x1="205.5926" y1="28.3116" x2="239.4074" y2="49.6884" gradientTransform="matrix(1 0 0 -1 0 374)">
			<stop  offset="0" style="stop-color:#673AB7"/>
			<stop  offset="1" style="stop-color:#89B0ED"/>
		</linearGradient>
		<circle class="st29" cx="222.5" cy="335" r="20"/>
		
			<linearGradient id="SVGID_31_" gradientUnits="userSpaceOnUse" x1="125.5926" y1="95.3116" x2="159.4074" y2="116.6884" gradientTransform="matrix(1 0 0 -1 0 374)">
			<stop  offset="0" style="stop-color:#673AB7"/>
			<stop  offset="1" style="stop-color:#89B0ED"/>
		</linearGradient>
		<circle class="st30" cx="142.5" cy="268" r="20"/>
		
			<linearGradient id="SVGID_32_" gradientUnits="userSpaceOnUse" x1="107.5926" y1="198.3116" x2="141.4074" y2="219.6884" gradientTransform="matrix(1 0 0 -1 0 374)">
			<stop  offset="0" style="stop-color:#673AB7"/>
			<stop  offset="1" style="stop-color:#89B0ED"/>
		</linearGradient>
		<circle class="st31" cx="124.5" cy="165" r="20"/>
		
			<linearGradient id="SVGID_33_" gradientUnits="userSpaceOnUse" x1="159.5926" y1="288.3116" x2="193.4074" y2="309.6884" gradientTransform="matrix(1 0 0 -1 0 374)">
			<stop  offset="0" style="stop-color:#673AB7"/>
			<stop  offset="1" style="stop-color:#89B0ED"/>
		</linearGradient>
		<circle class="st32" cx="176.5" cy="75" r="20"/>
		
			<linearGradient id="SVGID_34_" gradientUnits="userSpaceOnUse" x1="258.5926" y1="324.3116" x2="292.4074" y2="345.6884" gradientTransform="matrix(1 0 0 -1 0 374)">
			<stop  offset="0" style="stop-color:#673AB7"/>
			<stop  offset="1" style="stop-color:#89B0ED"/>
		</linearGradient>
		<circle class="st33" cx="275.5" cy="39" r="20"/>
		
			<linearGradient id="SVGID_35_" gradientUnits="userSpaceOnUse" x1="310.5926" y1="28.3116" x2="344.4074" y2="49.6884" gradientTransform="matrix(1 0 0 -1 0 374)">
			<stop  offset="0" style="stop-color:#673AB7"/>
			<stop  offset="1" style="stop-color:#89B0ED"/>
		</linearGradient>
		<circle class="st34" cx="327.5" cy="335" r="20"/>
		
			<linearGradient id="SVGID_36_" gradientUnits="userSpaceOnUse" x1="408.5926" y1="198.3116" x2="442.4074" y2="219.6884" gradientTransform="matrix(1 0 0 -1 0 374)">
			<stop  offset="0" style="stop-color:#673AB7"/>
			<stop  offset="1" style="stop-color:#89B0ED"/>
		</linearGradient>
		<circle class="st35" cx="425.5" cy="165" r="20"/>
		
			<linearGradient id="SVGID_37_" gradientUnits="userSpaceOnUse" x1="390.5926" y1="95.3116" x2="424.4074" y2="116.6884" gradientTransform="matrix(1 0 0 -1 0 374)">
			<stop  offset="0" style="stop-color:#673AB7"/>
			<stop  offset="1" style="stop-color:#89B0ED"/>
		</linearGradient>
		<circle class="st36" cx="407.5" cy="268" r="20"/>
		
			<linearGradient id="SVGID_38_" gradientUnits="userSpaceOnUse" x1="356.5926" y1="288.3116" x2="390.4074" y2="309.6884" gradientTransform="matrix(1 0 0 -1 0 374)">
			<stop  offset="0" style="stop-color:#673AB7"/>
			<stop  offset="1" style="stop-color:#89B0ED"/>
		</linearGradient>
		<circle class="st37" cx="373.5" cy="75" r="20"/>
	</g>
</g>
</svg>
