<?xml version="1.0" encoding="utf-8"?>
<!-- Generator: Adobe Illustrator 22.0.1, SVG Export Plug-In . SVG Version: 6.00 Build 0)  -->
<svg version="1.1" xmlns="http://www.w3.org/2000/svg" xmlns:xlink="http://www.w3.org/1999/xlink" x="0px" y="0px"
	 viewBox="0 0 1033.5 1032.5" style="enable-background:new 0 0 1033.5 1032.5;" xml:space="preserve">
<style type="text/css">
	.st0{opacity:0.3;}
	.st1{fill:#6534FF;}
	.st2{fill:#FFFFFF;}
	.st3{fill:#62BCFA;}
</style>
<g id="Layer_2">
</g>
<g id="Layer_1">
	<circle class="st0" cx="499.5" cy="533" r="500"/>
	<g>
		<path class="st1" d="M534,984.5c-65.5,0-129-12.8-188.8-38.1C287.5,922,235.6,887,191.1,842.4c-44.5-44.5-79.5-96.4-103.9-154.2
			C61.8,628.5,49,565,49,499.5c0-65.5,12.8-129,38.1-188.8c24.4-57.8,59.4-109.6,103.9-154.2S287.5,77,345.2,52.6
			C405,27.3,468.5,14.5,534,14.5c65.5,0,129,12.8,188.8,38.1C780.5,77,832.4,112,877,156.6c44.5,44.5,79.5,96.4,103.9,154.2
			c25.3,59.8,38.1,123.3,38.1,188.8c0,65.5-12.8,129-38.1,188.8C956.5,746,921.5,797.9,877,842.4C832.4,887,780.5,922,722.8,946.4
			C663,971.7,599.5,984.5,534,984.5z"/>
		<path class="st2" d="M534,29.5c63.5,0,125,12.4,182.9,36.9c56,23.7,106.2,57.6,149.4,100.7s77.1,93.4,100.7,149.4
			c24.5,57.9,36.9,119.5,36.9,182.9s-12.4,125-36.9,182.9c-23.7,56-57.6,106.2-100.7,149.4S772.9,908.9,717,932.6
			C659,957.1,597.5,969.5,534,969.5s-125-12.4-182.9-36.9c-56-23.7-106.2-57.6-149.4-100.7s-77.1-93.4-100.7-149.4
			C76.4,624.5,64,563,64,499.5s12.4-125,36.9-182.9c23.7-56,57.6-106.2,100.7-149.4s93.4-77.1,149.4-100.7
			C409,41.9,470.6,29.5,534,29.5 M534-0.5c-276.1,0-500,223.9-500,500s223.9,500,500,500s500-223.9,500-500S810.2-0.5,534-0.5
			L534-0.5z"/>
	</g>
	<g>
		<path class="st1" d="M534,792.5c-78.3,0-151.8-30.5-207.2-85.8C271.5,651.3,241,577.8,241,499.5c0-78.3,30.5-151.8,85.8-207.2
			s128.9-85.8,207.2-85.8c78.3,0,151.8,30.5,207.2,85.8c55.3,55.3,85.8,128.9,85.8,207.2c0,78.3-30.5,151.8-85.8,207.2
			C685.9,762,612.3,792.5,534,792.5z"/>
		<path class="st2" d="M534,221.5c37.5,0,73.9,7.3,108.2,21.8c33.1,14,62.8,34,88.4,59.6s45.6,55.3,59.6,88.4
			C804.7,425.6,812,462,812,499.5s-7.3,73.9-21.8,108.2c-14,33.1-34,62.8-59.6,88.4s-55.3,45.6-88.4,59.6
			c-34.3,14.5-70.7,21.8-108.2,21.8c-37.5,0-73.9-7.3-108.2-21.8c-33.1-14-62.8-34-88.4-59.6s-45.6-55.3-59.6-88.4
			C263.4,573.4,256,537,256,499.5s7.3-73.9,21.8-108.2c14-33.1,34-62.8,59.6-88.4s55.3-45.6,88.4-59.6
			C460.1,228.8,496.5,221.5,534,221.5 M534,191.5c-170.1,0-308,137.9-308,308s137.9,308,308,308s308-137.9,308-308
			S704.1,191.5,534,191.5L534,191.5z"/>
	</g>
	<g>
		<circle class="st1" cx="533" cy="499.5" r="101.5"/>
		<path class="st2" d="M533,413c47.7,0,86.5,38.8,86.5,86.5S580.7,586,533,586s-86.5-38.8-86.5-86.5S485.3,413,533,413 M533,383
			c-64.3,0-116.5,52.2-116.5,116.5c0,64.3,52.2,116.5,116.5,116.5s116.5-52.2,116.5-116.5C649.5,435.2,597.4,383,533,383L533,383z"
			/>
	</g>
	<path class="st0" d="M113.8,862.7l36.2-36.2c1.3-1.3,3-2,4.8-2h50.2l326.6-326.6c3.5-3.5,9.2-3.5,12.7,0v0c3.5,3.5,3.5,9.2,0,12.7
		L217.5,837.6v49.7c0,1.8-0.7,3.6-2,4.9L179,928.5c-4.3,4.3-11.7,1.3-11.7-4.9v-35.9L154.1,901c-3.5,3.5-9.2,3.5-12.7,0
		s-3.5-9.2,0-12.7l13.9-13.9h-36.6C112.5,874.4,109.5,867,113.8,862.7z"/>
	<path class="st3" d="M962,862.7l-36.2-36.2c-1.3-1.3-3-2-4.8-2h-50.2L544.2,497.9c-3.5-3.5-9.2-3.5-12.7,0v0
		c-3.5,3.5-3.5,9.2,0,12.7l326.9,326.9v49.7c0,1.8,0.7,3.6,2,4.9l36.5,36.5c4.3,4.3,11.7,1.3,11.7-4.9v-35.9l13.2,13.2
		c3.5,3.5,9.2,3.5,12.7,0s3.5-9.2,0-12.7l-13.9-13.9h36.6C963.3,874.4,966.3,867,962,862.7z"/>
</g>
</svg>
