<?xml version="1.0" encoding="utf-8"?>
<!-- Generator: Adobe Illustrator 22.0.1, SVG Export Plug-In . SVG Version: 6.00 Build 0)  -->
<svg version="1.1" id="Layer_1" xmlns="http://www.w3.org/2000/svg" xmlns:xlink="http://www.w3.org/1999/xlink" x="0px" y="0px"
	 viewBox="0 0 1033.5 1032.5" style="enable-background:new 0 0 1033.5 1032.5;" xml:space="preserve">
<style type="text/css">
	.st0{fill:none;}
	.st1{fill:#FFFFFF;}
	.st2{opacity:0.3;enable-background:new    ;}
	.st3{fill:#62BCFA;}
</style>
<g id="Layer_2_1_">
</g>
<g id="Layer_1_1_">
	<g>
		<path class="st0" d="M517.5,1017c-67.7,0-133.3-13.2-195-39.4c-59.6-25.2-113.2-61.4-159.2-107.4c-46-46-82.1-99.6-107.3-159.3
			C29.7,649.3,16.5,583.7,16.5,516s13.2-133.3,39.4-195c25.2-59.7,61.4-113.2,107.3-159.3s99.7-82.1,159.3-107.3
			C384.2,28.2,449.8,15,517.5,15s133.3,13.2,195,39.4c59.6,25.2,113.2,61.4,159.3,107.4c46,46,82.1,99.6,107.3,159.3
			c26.1,61.8,39.4,127.4,39.4,195s-13.2,133.3-39.4,195c-25.2,59.5-61.4,113.1-107.3,159.1c-46.1,46.1-99.7,82.2-159.3,107.4
			C650.8,1003.8,585.2,1017,517.5,1017z"/>
		<path class="st1" d="M517.5,30.5c65.6,0,129.1,12.8,188.9,38.1c57.8,24.5,109.7,59.5,154.3,104s79.6,96.5,104,154.3
			c25.3,59.8,38.1,123.4,38.1,188.9c0,65.5-12.8,129.1-38.1,188.9c-24.5,57.8-59.5,109.7-104,154.3s-96.5,79.7-154.2,104.2
			c-59.9,25.3-123.4,38.1-189,38.1s-129.1-12.8-188.9-38.1c-57.8-24.5-109.7-59.5-154.3-104S94.6,762.9,70.2,705
			C44.8,645.1,32,581.6,32,516s12.8-129.1,38.1-188.9c24.5-57.8,59.5-109.7,104-154.3s96.5-79.6,154.3-104
			C388.4,43.3,452,30.5,517.5,30.5 M517.5-0.5C232.3-0.5,1,230.8,1,516s231.3,516.5,516.5,516.5S1034,801.2,1034,516
			S802.8-0.5,517.5-0.5L517.5-0.5z"/>
	</g>
	<g>
		<path class="st0" d="M517.5,818.7c-80.9,0-156.8-31.5-214-88.6c-57.1-57.2-88.6-133.2-88.6-214s31.5-156.8,88.6-214
			s133.2-88.6,214-88.6s156.8,31.5,214,88.6c57.1,57.1,88.6,133.2,88.6,214s-31.5,156.8-88.6,214
			C674.4,787.2,598.4,818.7,517.5,818.7z"/>
		<path class="st1" d="M517.5,228.8c38.7,0,76.3,7.5,111.8,22.5c34.2,14.5,64.9,35.1,91.3,61.6c26.4,26.4,47.1,57.1,61.6,91.3
			c15,35.4,22.5,73,22.5,111.8s-7.5,76.3-22.5,111.8c-14.5,34.2-35.1,64.9-61.6,91.3s-57.1,47.1-91.3,61.6
			c-35.4,15-73,22.5-111.8,22.5s-76.3-7.5-111.8-22.5c-34.2-14.5-64.9-35.1-91.3-61.6c-26.4-26.4-47.1-57.1-61.6-91.3
			c-14.9-35.4-22.5-73-22.5-111.8s7.5-76.3,22.5-111.8c14.5-34.2,35.1-64.9,61.6-91.3c26.4-26.4,57.1-47.1,91.3-61.6
			C441.2,236.4,478.8,228.8,517.5,228.8 M517.5,197.8c-175.7,0-318.2,142.5-318.2,318.2s142.5,318.2,318.2,318.2
			S835.7,691.7,835.7,516S693.2,197.8,517.5,197.8L517.5,197.8z"/>
	</g>
	<g>
		<circle class="st0" cx="516.5" cy="516" r="104.8"/>
		<path class="st1" d="M516.5,426.6c49.3,0,89.4,40.1,89.4,89.4s-40.1,89.4-89.4,89.4s-89.4-40.1-89.4-89.4S467.2,426.6,516.5,426.6
			 M516.5,395.7c-66.4,0-120.3,53.9-120.3,120.3S450,636.3,516.5,636.3S636.8,582.4,636.8,516S583,395.7,516.5,395.7L516.5,395.7z"
			/>
	</g>
	<path class="st2" d="M83.4,891.2l37.4-37.4c1.3-1.3,3.1-2.1,5-2.1h51.9L515,514.3c3.6-3.6,9.5-3.6,13.1,0l0,0
		c3.6,3.6,3.6,9.5,0,13.1L190.6,865.3v51.3c0,1.9-0.7,3.7-2.1,5.1l-37.7,37.5c-4.4,4.4-12.1,1.3-12.1-5.1V917l-13.6,13.7
		c-3.6,3.6-9.5,3.6-13.1,0c-3.6-3.6-3.6-9.5,0-13.1l14.4-14.4H88.5C82.1,903.3,79,895.6,83.4,891.2z"/>
	<path class="st3" d="M959.6,891.2l-37.4-37.4c-1.3-1.3-3.1-2.1-5-2.1h-51.9L528,514.3c-3.6-3.6-9.5-3.6-13.1,0l0,0
		c-3.6,3.6-3.6,9.5,0,13.1l337.7,337.7v51.3c0,1.9,0.7,3.7,2.1,5.1l37.7,37.7c4.4,4.4,12.1,1.3,12.1-5.1v-37.1l13.6,13.6
		c3.6,3.6,9.5,3.6,13.1,0c3.6-3.6,3.6-9.5,0-13.1l-14.4-14.4h37.8C961,903.3,964.1,895.6,959.6,891.2z"/>
</g>
</svg>
